<svg width="209" height="188" viewBox="0 0 209 188" fill="none" xmlns="http://www.w3.org/2000/svg">
<mask id="mask0_284_1557" style="mask-type:luminance" maskUnits="userSpaceOnUse" x="0" y="0" width="209" height="188">
<path d="M207.954 0.543058L0.139648 1.70435L1.17902 187.701L208.993 186.54L207.954 0.543058Z" fill="white"/>
</mask>
<g mask="url(#mask0_284_1557)">
<path d="M59.5084 142.809L34.1389 163.607L64.2059 180.306L89.901 159.704L59.5084 142.809Z" fill="#FAEFCB"/>
<path d="M71.5955 174.384L58.2156 166.683C57.1328 166.061 57.1789 164.48 58.2937 163.917L67.6727 159.206L81.1351 166.731L71.5904 174.384L71.5955 174.384Z" fill="black"/>
<path d="M197.051 124.06C197.181 126.505 195.983 128.836 193.909 130.135L179.553 139.164L173.632 142.893L168.172 146.332L163.419 149.321L153.202 155.75L148.417 158.761L125.392 173.251L120.354 176.418L105.038 186.053C102.81 187.458 99.9908 187.512 97.7099 186.199L97.1792 185.892L92.0246 182.926L55.0931 161.656C54.391 161.252 53.9576 160.506 53.9531 159.696L53.9243 154.548L77.0306 132.865L81.4133 128.754L98.4663 112.755L102.679 108.8L114.161 98.0306L119.042 93.4491L129.637 83.5055C131.502 81.2155 133.794 79.4957 136.155 78.1937C138.098 77.1198 140.092 76.3376 141.934 75.7658C144.177 75.0707 146.202 74.6902 147.654 74.4837C149.046 74.2837 150.463 74.5616 151.673 75.2821L152.938 76.04L175.68 89.6415L181.145 92.9099L184.377 94.8408L193.77 100.465C195.068 101.24 195.896 102.612 195.977 104.121L197.051 124.06Z" fill="#68DACB"/>
<path d="M115.632 146.042L115.632 146.059C115.632 146.059 115.632 146.025 115.621 146.014C115.621 146.026 115.621 146.031 115.632 146.042Z" fill="#AFE5DE"/>
<path d="M166.096 142.191C166.024 142.032 165.957 141.879 165.884 141.724C165.872 141.691 165.856 141.659 165.844 141.625C165.833 141.604 165.823 141.576 165.812 141.56C165.805 141.543 165.8 141.521 165.789 141.51C165.784 141.504 165.784 141.499 165.784 141.499C165.778 141.472 165.767 141.449 165.756 141.422C165.527 140.867 165.292 140.313 165.069 139.751C164.639 138.664 164.225 137.576 163.823 136.482C160.668 127.799 158.525 118.808 156.163 109.895C153.772 100.882 151.112 91.9209 147.094 83.4851C146.822 82.9139 146.543 82.3479 146.242 81.7941C145.87 81.0852 145.469 80.3886 145.036 79.7135C144.141 78.2924 143.12 76.9482 141.936 75.7657C140.094 76.3375 138.099 77.1197 136.156 78.1935C136.482 78.3565 136.912 78.586 137.013 78.7838C136.974 78.7566 136.841 78.6526 136.786 78.603C136.791 78.6193 136.808 78.6304 136.825 78.6465C136.919 78.7294 137.024 78.8051 137.118 78.888C137.284 79.0295 137.456 79.1832 137.616 79.3359C137.942 79.6433 138.258 79.9711 138.557 80.3061C138.713 80.4752 138.862 80.6513 139.012 80.8265C139.04 80.8589 139.062 80.8862 139.079 80.9085C139.084 80.9146 139.09 80.9247 139.101 80.9358C139.111 80.947 139.117 80.9581 139.117 80.9581C139.417 81.3582 139.706 81.7696 139.978 82.1811C141.071 83.8432 141.957 85.6225 142.782 87.4296C143.017 87.941 143.246 88.4575 143.474 88.9679C143.502 89.0389 143.535 89.1109 143.569 89.182C143.569 89.1881 143.569 89.1932 143.574 89.1982C143.579 89.2043 143.574 89.2206 143.591 89.2429C143.591 89.248 143.597 89.254 143.597 89.2591C143.602 89.2642 143.608 89.2814 143.608 89.2926C143.625 89.3302 143.641 89.3748 143.664 89.4134C143.764 89.6712 143.875 89.9238 143.982 90.1826C144.423 91.2595 144.853 92.3414 145.256 93.4297C146.055 95.5787 146.794 97.7382 147.478 99.9204C150.264 108.721 152.297 117.736 154.813 126.615C156.061 131.024 157.424 135.411 159.061 139.698C160.312 142.972 161.663 146.269 163.421 149.321L168.173 146.332C167.405 144.992 166.72 143.603 166.096 142.191ZM150.694 150.135C146.961 142.435 142.021 135.497 136.977 128.62C132.144 122.05 127.229 115.453 123.608 108.121C123.184 107.27 122.789 106.413 122.404 105.545C122.393 105.518 122.382 105.486 122.37 105.457C122.343 105.402 122.326 105.364 122.31 105.331C122.31 105.331 122.298 105.298 122.292 105.288C122.287 105.27 122.287 105.265 122.281 105.26L122.276 105.26C122.186 105.029 122.097 104.81 122.002 104.584C121.806 104.1 121.623 103.612 121.443 103.123C120.75 101.249 120.178 99.3294 119.726 97.3829C119.495 96.3761 119.313 95.3639 119.142 94.3467C119.13 94.2745 119.125 94.2471 119.125 94.242C119.119 94.1922 119.119 94.1484 119.113 94.121C119.09 93.8953 119.062 93.6696 119.043 93.449L114.163 98.0304C115.672 105.148 118.865 111.805 122.716 117.967C127.088 124.959 132.246 131.405 136.97 138.153C139.395 141.603 141.701 145.141 143.732 148.842C144.822 150.834 145.847 152.872 146.794 154.937C147.023 155.442 147.24 155.948 147.469 156.459L147.475 156.459C147.475 156.459 147.48 156.475 147.486 156.487C147.486 156.492 147.491 156.492 147.491 156.497C147.491 156.503 147.491 156.508 147.497 156.519C147.497 156.53 147.514 156.553 147.519 156.574C147.53 156.591 147.542 156.612 147.547 156.624C147.552 156.64 147.552 156.646 147.558 156.656C147.563 156.667 147.563 156.673 147.57 156.684L147.575 156.684C147.591 156.733 147.609 156.767 147.614 156.788C147.737 157.079 147.859 157.382 147.982 157.673C148.134 158.035 148.273 158.399 148.418 158.761L153.203 155.75C152.427 153.849 151.591 151.981 150.694 150.135ZM119.13 94.3467C119.142 94.4067 119.154 94.4727 119.16 94.5174C119.142 94.4728 119.137 94.4128 119.13 94.3467ZM175.682 89.6413C175.602 92.1259 175.514 95.1709 175.417 98.5528C175.008 113.066 174.447 133.757 173.633 142.893L179.554 139.164C180.137 132.156 180.501 105.579 180.869 98.5559C180.909 97.7897 180.948 97.0245 180.988 96.2583C181.043 95.1461 181.091 94.0279 181.146 92.9097L175.682 89.6413ZM94.6606 159.639C91.7024 150.702 87.179 142.379 83.4363 133.766C83.4023 133.688 83.3744 133.611 83.3415 133.54C83.3415 133.54 83.3301 133.513 83.3136 133.474C83.3074 133.458 83.3023 133.441 83.291 133.425C83.2848 133.413 83.2848 133.408 83.2796 133.397C83.2745 133.381 83.2632 133.365 83.257 133.342L83.2519 133.342C83.1569 133.101 83.057 132.876 82.9621 132.634C82.727 132.079 82.493 131.513 82.2691 130.947C81.9792 130.222 81.6882 129.491 81.4145 128.755L77.0319 132.864C78.6235 136.798 80.4068 140.649 82.2075 144.499C83.1937 146.597 84.1749 148.702 85.1287 150.816C85.3675 151.333 85.5963 151.854 85.8311 152.376C85.9424 152.634 86.0599 152.897 86.1712 153.156C86.2216 153.266 86.2711 153.381 86.3165 153.491C86.3494 153.568 86.366 153.618 86.3937 153.661C86.3999 153.678 86.4051 153.694 86.4051 153.7C86.4164 153.711 86.4164 153.721 86.4165 153.727C86.4216 153.727 86.4216 153.732 86.4277 153.738C86.8689 154.782 87.2979 155.826 87.7066 156.876C89.3431 161.024 90.6772 165.295 91.5063 169.674C91.613 170.208 91.7046 170.752 91.79 171.286C91.8299 171.522 91.8648 171.748 91.8986 171.985C91.904 172.028 91.9103 172.067 91.9155 172.1C91.9217 172.117 91.9269 172.139 91.9271 172.166C91.9271 172.166 91.9334 172.194 91.9334 172.199C91.9388 172.265 91.9443 172.331 91.9508 172.392C92.0943 173.503 92.1941 174.627 92.2553 175.744C92.3783 177.918 92.3346 180.105 92.1046 182.271C92.0998 182.319 92.094 182.381 92.0944 182.441L92.0946 182.479C92.0898 182.524 92.09 182.573 92.074 182.612C92.0789 182.589 92.0788 182.562 92.0787 182.54C92.0738 182.584 92.0679 182.623 92.0631 182.667C92.0632 182.684 92.0633 182.705 92.0634 182.721C92.0475 182.794 92.0418 182.86 92.031 182.926L97.1856 185.893C98.9047 177.15 97.4438 168.016 94.6657 159.639L94.6606 159.639ZM123.885 165.44C123.679 164.246 123.491 163.053 123.308 161.864C123.228 161.33 123.147 160.791 123.073 160.252C123.028 159.971 122.982 159.679 122.947 159.394C122.941 159.366 122.936 159.31 122.924 159.244C122.924 159.239 122.924 159.234 122.919 159.228C122.919 159.217 122.913 159.212 122.913 159.189L122.913 159.151C122.907 159.123 122.907 159.107 122.901 159.091C122.901 159.068 122.896 159.047 122.896 159.03C122.884 158.97 122.879 158.915 122.879 158.898C122.563 156.653 122.286 154.403 122.015 152.146C121.506 147.996 120.999 143.842 120.271 139.721C118.912 132.009 116.693 124.102 112.048 117.674C109.472 114.126 106.328 111.209 102.68 108.8L98.4675 112.755C98.7166 112.913 98.9759 113.072 99.2301 113.236C99.6946 113.53 100.153 113.831 100.601 114.142C100.828 114.3 101.055 114.454 101.275 114.617C101.364 114.683 101.463 114.754 101.557 114.82C101.557 114.825 101.679 114.918 101.784 114.995L101.801 115.011C101.801 115.011 101.829 115.027 101.834 115.038C101.834 115.038 101.845 115.038 101.85 115.038C101.862 115.044 101.862 115.049 101.867 115.054L101.878 115.06C101.884 115.072 101.889 115.077 101.895 115.083L101.9 115.083C101.9 115.083 101.906 115.083 101.906 115.088C101.912 115.093 101.917 115.093 101.917 115.093C102.038 115.192 102.16 115.29 102.282 115.389C102.492 115.564 102.703 115.733 102.907 115.913C103.338 116.286 103.765 116.668 104.169 117.063C104.85 117.72 105.499 118.405 106.114 119.128C106.264 119.303 106.413 119.484 106.563 119.666C106.629 119.742 106.691 119.825 106.757 119.901C107.061 120.229 107.312 120.652 107.562 121.014C108.644 122.566 109.589 124.213 110.408 125.927C110.604 126.333 110.793 126.74 110.977 127.152C110.983 127.168 110.988 127.185 110.994 127.201C110.999 127.212 111.005 127.218 111.011 127.234C111.016 127.246 111.022 127.251 111.022 127.262C111.043 127.294 111.05 127.322 111.05 127.328C111.055 127.333 111.061 127.35 111.066 127.366C111.172 127.613 111.267 127.861 111.367 128.113C111.731 129.02 112.061 129.949 112.363 130.878C113.591 134.626 114.421 138.487 115.065 142.372C115.231 143.373 115.385 144.369 115.529 145.376C115.563 145.596 115.586 145.816 115.626 146.037L115.626 146.058C115.631 146.097 115.643 146.14 115.643 146.185C115.717 146.702 115.786 147.225 115.85 147.747C116.108 149.696 116.34 151.649 116.577 153.603C117.512 161.252 118.627 168.9 120.35 176.413L125.387 173.246C124.816 170.655 124.322 168.048 123.878 165.435L123.885 165.44Z" fill="#AFE5DE"/>
<path d="M184.379 94.8406L180.989 96.2582L175.451 98.5749L175.418 98.5527L146.243 81.793L143.702 80.3373L145.037 79.7134L152.941 76.0398L175.683 89.6413L181.147 92.9096L184.379 94.8406Z" fill="black"/>
<path d="M193.994 130.08L173.153 143.192L172.324 143.715L141.243 163.273L140.419 163.789L105.113 186.008C102.841 187.436 99.9674 187.496 97.6417 186.155L55.1739 161.699C54.4228 161.263 53.9606 160.467 53.9558 159.602L53.9275 154.541L94.976 178.228C97.2742 179.554 100.175 179.23 102.119 177.423L177.819 107.13C177.819 107.13 185.124 98.8625 193.66 100.94C194.962 101.258 195.888 102.408 195.961 103.741L197.061 124.154C197.191 126.538 196.019 128.802 194 130.074L193.994 130.08Z" fill="#62998F"/>
<path d="M167.214 114.91L167.17 114.949L105.118 171.685C103.693 172.987 101.597 173.208 99.9332 172.237L64.6134 151.58L63.4693 150.91C62.3314 150.249 62.1578 148.67 63.1212 147.772L124.933 90.1456C125.666 89.4579 126.756 89.3257 127.635 89.8111L166.804 111.508C168.064 112.206 168.272 113.934 167.209 114.904L167.214 114.91Z" fill="black"/>
<path d="M167.179 114.949L157.64 123.67L105.126 171.69C103.702 172.993 101.604 173.213 99.9419 172.243L70.7924 155.191L64.6211 151.586C63.9618 150.835 63.9775 149.646 64.7608 148.92L70.4197 143.646L125.202 92.5664C125.92 91.9022 126.982 91.7691 127.838 92.2434L164.936 112.792L166.147 113.462C166.742 113.789 167.092 114.354 167.179 114.949Z" fill="#DCD7F9"/>
<path d="M167.179 114.949L157.641 123.67C155.58 123.599 153.521 123.621 151.456 123.688C148.62 123.78 145.786 123.99 142.969 124.357C142.958 124.357 142.946 124.357 142.935 124.364C138.82 125.003 134.762 126.016 130.899 127.603C127.647 129.074 124.629 130.958 121.794 133.121C118.977 135.379 116.331 137.844 113.568 140.167C110.438 142.794 107.171 145.313 103.597 147.321C99.2985 149.74 94.6171 151.556 89.8377 152.75C83.6351 154.293 77.1796 154.985 70.7925 155.191L64.6212 151.586C63.9619 150.835 63.9776 149.646 64.7609 148.92L70.4198 143.646C73.7618 143.539 77.098 143.295 80.4097 142.863C80.4382 142.857 80.4656 142.852 80.4931 142.852C85.087 142.143 89.6237 141.022 93.9371 139.263C93.9584 139.252 93.9858 139.24 94.0081 139.229C97.3971 137.697 100.558 135.756 103.525 133.521C103.541 133.505 103.558 133.494 103.575 133.482C103.788 133.316 104.002 133.144 104.211 132.972C107.165 130.571 109.942 127.957 112.886 125.539C116.372 122.683 120.014 120.031 124.089 118.076C129.185 115.629 134.546 114.013 140.13 113.179C148.346 111.949 156.697 111.621 164.936 112.792L166.147 113.462C166.742 113.79 167.093 114.354 167.179 114.949Z" fill="#E8E8FC"/>
<path d="M144.042 78.8381L142.527 79.5729C142.197 79.7293 142.183 80.1922 142.492 80.3777L174.758 99.3936C174.913 99.4863 175.106 99.4964 175.27 99.4182L176.627 98.788C176.836 98.6933 176.85 98.4074 176.658 98.2874L144.918 78.8881C144.653 78.7238 144.317 78.7094 144.037 78.8432L144.042 78.8381Z" fill="black"/>
<path d="M143.7 80.3374L175.45 98.5749C175.45 98.5749 186.936 77.5903 208.371 75.1848L175.915 56.5555C175.915 56.5555 152.203 60.6532 143.695 80.3435L143.7 80.3374Z" fill="#FBF4DE"/>
<path d="M172.321 143.715L140.416 163.795L139.808 152.459C139.759 151.507 140.161 150.591 140.901 149.992L169.697 126.516C170.409 125.933 171.48 126.412 171.524 127.331L172.321 143.715Z" fill="black"/>
<path d="M173.634 142.925L172.806 143.447L141.725 163.006L141.177 152.71C141.128 151.758 141.53 150.842 142.27 150.243L171.066 126.766C171.779 126.184 172.849 126.657 172.898 127.576L173.64 142.92L173.634 142.925Z" fill="#84E1D5"/>
<path d="M59.3732 157.689L93.9144 177.91C96.8424 179.623 100.546 179.21 103.022 176.894L139.879 142.447" stroke="#507F77" stroke-width="0.55067" stroke-miterlimit="10" stroke-linecap="round"/>
<path d="M173.34 111.263L145.906 136.946C144.049 135.805 142.154 134.665 140.236 133.542C139.059 132.848 138.656 131.391 139.15 130.281C139.201 129.676 139.474 129.095 139.978 128.691L163.655 109.495C165.086 108.335 167.067 108.109 168.801 108.937C170.325 109.666 171.838 110.44 173.34 111.263Z" fill="black"/>
<path d="M77.0321 132.859L107.329 150.362L132.484 123.733L102.68 108.8L77.0321 132.859Z" fill="black"/>
<path d="M102.172 90.036C98.0756 101.832 90.8892 114.632 87.2819 112.587C83.6745 110.536 83.7818 108.075 85.7847 99.8747C87.7814 91.6687 84.9548 92.4454 84.9548 92.4454C84.9548 92.4454 79.7892 101.169 74.7955 101.329C74.1233 101.355 73.4024 101.414 72.6592 101.49C70.9096 101.681 69.0496 101.951 67.3541 101.988C64.4574 102.053 62.0583 101.438 61.5904 98.5288L61.4967 98.512L55.3957 97.4729L54.3866 97.2965C54.3866 97.2965 51.1105 96.4562 51.4375 92.891C51.4375 92.891 44.1483 88.2067 49.2447 83.6689C49.2447 83.6689 51.0427 82.3089 52.8838 82.673L51.8156 78.6426C51.8156 78.6426 45.6829 74.1339 45.5919 71.6788C45.5919 71.6788 22.2495 65.8391 18.5718 49.2351L13.9893 40.2073L10.8044 33.9366L9.49031 31.35L44.3469 12.3554L45.2192 13.7162L45.2305 13.7327L48.2464 18.4296C48.2464 18.4296 67.6544 37.584 80.712 41.6736C93.7748 45.7641 95.875 52.988 96.902 55.4602C97.9239 57.9335 106.264 78.2336 102.172 90.036Z" fill="#A44303"/>
<path d="M45.2562 13.6938C45.2562 13.6938 45.2401 13.7214 45.2289 13.7325C32.7871 33.0099 13.9884 40.2071 13.9884 40.2071L10.8034 33.9364L45.2176 13.716L45.2562 13.6938Z" fill="black"/>
<path d="M55.3953 97.4728C56.1644 97.1216 56.9813 96.4121 57.6899 95.0644C57.9888 94.4839 58.6483 94.1832 59.2927 94.2783C60.8749 94.5177 62.9226 95.437 61.4973 98.5119" fill="#FCD164"/>
<path d="M96.8597 82.0527C96.8597 82.0527 92.692 82.2134 91.1001 83.1368" stroke="#231005" stroke-width="0.826005" stroke-miterlimit="10" stroke-linecap="round"/>
<path d="M74.0411 86.4475L71.1293 90.5561" stroke="#231005" stroke-width="0.826005" stroke-miterlimit="10" stroke-linecap="round"/>
<path d="M73.7896 91.0802C73.7896 91.0802 63.7893 88.1902 61.5888 98.5274" stroke="#231005" stroke-width="0.826005" stroke-miterlimit="10" stroke-linecap="round"/>
<path d="M70.3925 84.106C70.3925 84.106 64.2032 84.0144 61.6174 88.3898" stroke="#231005" stroke-width="0.826005" stroke-miterlimit="10" stroke-linecap="round"/>
<path d="M52.9687 86.6874C52.3072 87.5446 51.1025 88.7628 49.5876 88.7265C49.1308 88.7189 48.8304 89.2099 49.0199 89.6279C49.3989 90.4569 50.1923 91.5429 51.8532 92.0463C51.8532 92.0463 53.3625 89.2619 55.4967 88.7271C55.4967 88.7271 55.3967 87.5822 54.4829 86.6067C54.0674 86.1635 53.3404 86.2113 52.9738 86.6976L52.9687 86.6874Z" fill="#FCD164"/>
<path d="M64.3248 89.1894C64.3248 89.1894 54.7591 85.063 51.4328 92.8909" stroke="#231005" stroke-width="0.826005" stroke-miterlimit="10" stroke-linecap="round"/>
<path d="M66.4855 78.2735C66.4855 78.2735 58.3889 80.0094 51.817 78.6372" stroke="#231005" stroke-width="0.826005" stroke-miterlimit="10" stroke-linecap="round"/>
<path d="M64.1262 81.0739C64.1262 81.0739 63.4398 83.4784 65.0969 85.3032" stroke="#231005" stroke-width="0.826005" stroke-miterlimit="10" stroke-linecap="round"/>
<path d="M57.5968 86.3036C57.5968 86.3036 56.9575 83.1345 52.8799 82.668" stroke="#231005" stroke-width="0.826005" stroke-miterlimit="10" stroke-linecap="round"/>
<path d="M48.6752 70.2615L45.5938 71.6785" stroke="#231005" stroke-width="0.826005" stroke-miterlimit="10" stroke-linecap="round"/>
<path d="M106.352 151.253C99.7836 145.635 94.0904 139.856 89.1949 133.926C88.646 133.274 88.1144 132.615 87.5981 131.963C81.9022 124.792 77.3455 117.416 73.8121 109.858C72.9041 107.92 73.1892 105.798 74.5026 104.353L77.2233 101.376L78.384 100.103L83.1065 94.9162L96.3571 80.3761C97.0142 79.6512 98.0375 79.4583 98.992 79.7114C99.747 79.9167 100.461 80.3969 100.905 81.1269C100.927 81.1603 100.938 81.1816 100.955 81.209C106.355 90.6401 111.955 99.5024 117.903 107.426C119.057 108.978 120.227 110.491 121.419 111.96C121.963 112.624 122.501 113.287 123.038 113.939C125.211 116.537 127.428 119.009 129.699 121.331C130.491 122.141 131.294 122.935 132.102 123.708C132.213 123.812 132.312 123.915 132.418 124.014C133.863 125.399 134.1 127.419 133.039 128.768L133.039 128.78C132.979 128.857 132.913 128.929 132.842 129.006L126.847 135.29L124.291 137.964L111.54 151.317C110.953 151.932 110.135 152.256 109.266 152.288L109.26 152.288C108.263 152.333 107.204 151.987 106.358 151.259L106.352 151.253Z" fill="#B24F24"/>
<path d="M109.266 152.288C109.266 152.288 109.266 152.288 109.261 152.288C108.599 152.138 107.958 151.828 107.399 151.352C100.699 145.612 94.9005 139.709 89.9321 133.657C89.3893 133 88.8618 132.347 88.3464 131.683C82.7946 124.633 78.3373 117.383 74.8657 109.957C73.9516 108.018 74.2368 105.897 75.5562 104.452L77.6743 102.133L97.4056 80.48C97.8272 80.0209 98.3925 79.7757 98.9984 79.7224C100.116 79.6277 101.368 80.1995 102.003 81.3139C107.264 90.5189 112.731 99.1725 118.512 106.943C119.727 108.577 120.959 110.179 122.206 111.73C122.744 112.4 123.282 113.063 123.82 113.715C126.048 116.39 128.321 118.933 130.652 121.325C131.467 122.164 132.281 122.974 133.111 123.773C133.233 123.889 133.349 123.998 133.465 124.118C134.993 125.581 135.171 127.766 133.89 129.11L128.196 135.079L125.524 137.875L112.593 151.411C111.771 152.274 110.501 152.568 109.272 152.294L109.266 152.288Z" fill="#FF6600"/>
<path d="M97.6096 81.4807L76.3739 104.783C75.0929 106.189 74.8186 108.25 75.704 110.14C82.3084 124.26 92.5662 137.722 107.329 150.366C108.878 151.69 111.142 151.711 112.373 150.42L133.073 128.746C134.322 127.44 134.144 125.315 132.66 123.897C121.351 113.106 111.39 98.5797 102.081 82.2929C101.13 80.63 98.7815 80.2026 97.6157 81.4807L97.6096 81.4807Z" fill="#FF8534"/>
<path d="M89.9207 133.657C90.1349 133.578 90.344 133.501 90.5521 133.422C93.7832 132.22 97.0319 131.062 100.307 129.959C100.962 130.748 101.764 131.432 102.571 131.995C104.484 133.35 106.572 134.483 108.73 135.386C113.068 137.196 117.766 138.072 122.457 138.024C123.052 138.01 123.657 138 124.257 137.953C124.257 137.953 124.273 137.964 124.279 137.953C124.686 137.928 125.089 137.893 125.507 137.859L128.178 135.056C127.727 135.136 127.281 135.21 126.836 135.279C126.825 135.279 126.82 135.279 126.808 135.279C126.555 135.325 126.291 135.348 126.038 135.388C121.829 135.924 117.487 135.629 113.395 134.479C111.31 133.884 109.262 133.097 107.335 132.101C105.789 131.305 104.065 130.367 102.759 129.131C107.59 127.555 112.479 126.141 117.461 125.149C122.231 124.192 127.211 123.498 132.09 123.702C132.223 123.707 132.344 123.711 132.476 123.722C132.597 123.726 132.719 123.737 132.834 123.742C132.917 123.742 133.005 123.751 133.088 123.757C132.257 122.957 131.443 122.147 130.623 121.309C130.425 121.31 130.238 121.311 130.046 121.317C129.918 121.313 129.804 121.319 129.682 121.319C127.837 121.352 125.988 121.495 124.161 121.692C118.503 122.296 112.96 123.6 107.5 125.183C105.444 125.783 103.393 126.406 101.349 127.067C100.989 125.759 101.681 124.467 102.776 123.452C104.569 121.785 106.825 120.545 108.982 119.409C113.446 117.077 118.212 115.409 123.016 113.929C123.121 113.895 123.219 113.867 123.319 113.839C123.478 113.788 123.621 113.743 123.786 113.699C123.248 113.046 122.71 112.382 122.172 111.714C122.013 111.759 121.859 111.809 121.699 111.86C121.595 111.888 121.49 111.921 121.392 111.955C117.702 113.11 114.054 114.381 110.544 115.997C107.875 117.224 105.284 118.653 102.87 120.335C101.07 121.59 99.3005 123.257 98.8838 125.507C98.7347 126.327 98.8103 127.104 99.0564 127.829C95.6652 128.961 92.2968 130.169 88.9439 131.438L88.9389 131.438C88.7297 131.51 88.5267 131.588 88.3176 131.667L88.3125 131.667C88.0648 131.762 87.8182 131.857 87.5705 131.952C88.0859 132.61 88.6185 133.267 89.1673 133.914C89.4089 133.826 89.6566 133.731 89.8982 133.641L89.9207 133.657Z" fill="#FF985F"/>
<path d="M111.121 144.971C111.241 144.7 111.002 144.343 111.011 144.058C111.021 143.771 111.284 143.433 111.189 143.159C111.093 142.884 110.685 142.777 110.514 142.534C110.347 142.304 110.372 141.88 110.14 141.694C109.918 141.52 109.506 141.632 109.235 141.512C108.965 141.393 108.776 141.008 108.495 140.96C108.203 140.907 107.896 141.211 107.614 141.24C107.318 141.27 106.958 141.041 106.694 141.152C106.432 141.263 106.345 141.683 106.137 141.882C105.929 142.081 105.506 142.133 105.386 142.403C105.266 142.675 105.505 143.031 105.495 143.317C105.486 143.604 105.224 143.941 105.319 144.215C105.414 144.491 105.822 144.598 105.994 144.84C106.161 145.07 106.136 145.495 106.368 145.681C106.588 145.855 107.001 145.743 107.272 145.863C107.542 145.982 107.732 146.367 108.013 146.415C108.305 146.468 108.611 146.163 108.892 146.134C109.19 146.105 109.548 146.334 109.812 146.223C110.076 146.111 110.162 145.692 110.37 145.492C110.578 145.294 111.002 145.242 111.121 144.971Z" fill="#B24F24"/>
<path d="M79.8684 100.689L79.3742 99.9926L78.8861 99.3016L83.7702 94.2685L88.4849 90.6025L89.8229 89.5646L90.124 90.1142L96.8941 102.389L93.7007 106.509C93.7007 106.509 85.9359 110.297 79.8633 100.689L79.8684 100.689Z" fill="black"/>
<path d="M78.2941 54.2875C78.2941 54.2875 81.3598 61.8965 83.368 69.3914C84.942 75.2694 91.0507 77.4986 92.5485 85.4083C94.3357 94.8535 102.936 95.4392 99.9232 102.29C98.2538 106.093 88.7107 113.108 78.3011 91.9474C78.3011 91.9474 74.0721 80.2311 66.7945 76.7084C59.5169 73.1868 44.1889 70.767 35.4516 51.409L74.0829 44.6575L78.2941 54.2814L78.2941 54.2875Z" fill="#A44303"/>
<path d="M35.4517 51.415C35.4517 51.415 40.8822 69.3531 66.7946 76.7144C66.7946 76.7144 75.4272 81.3353 78.3012 91.9534C78.3012 91.9534 80.1192 96.1718 81.1782 97.4598" stroke="#231005" stroke-width="0.826005" stroke-miterlimit="10" stroke-linecap="round"/>
<path d="M78.2959 54.2864C78.2959 54.2864 78.7164 61.6468 81.0452 65.5216C82.4406 67.8484 83.7805 70.98 84.6235 73.1064C85.2322 74.639 86.0774 76.0666 87.12 77.3435C88.9719 79.6138 91.8624 83.5455 92.4862 86.6812" stroke="#231005" stroke-width="0.826005" stroke-miterlimit="10" stroke-linecap="round"/>
<path d="M97.2243 95.53C97.2243 95.53 92.8278 90.4348 91.3432 93.2609C89.9573 95.9073 89.3688 100.184 93.2893 104.758C93.6538 105.186 94.3499 105.056 94.5443 104.526C95.1476 102.902 96.506 100.058 98.8693 99.0191C99.3615 98.8047 99.5085 98.1753 99.1584 97.7744L97.2314 95.53L97.2243 95.53Z" fill="#FCD164"/>
<path d="M67.3532 101.981C69.2526 98.9312 71.5908 100.493 72.6594 101.49C70.9148 101.676 69.0497 101.95 67.3532 101.981Z" fill="#FCD164"/>
<path d="M92.0425 67.691C92.0425 67.691 88.3094 72.8214 84.6164 73.1015" stroke="#231005" stroke-width="0.826005" stroke-miterlimit="10" stroke-linecap="round"/>
<path d="M86.6172 72.5288L88.5208 79.1475" stroke="#231005" stroke-width="0.826005" stroke-miterlimit="10" stroke-linecap="round"/>
<path d="M90.7978 57.9062C90.7978 57.9062 83.8604 65.0218 81.0383 65.5218" stroke="#231005" stroke-width="0.826005" stroke-miterlimit="10" stroke-linecap="round"/>
<path d="M76.1783 98.8152C76.1783 98.8152 76.2742 101.051 76.1148 101.095" stroke="#231005" stroke-width="0.826005" stroke-miterlimit="10" stroke-linecap="round"/>
<path d="M89.9103 83.474C89.9103 83.474 87.8835 88.3151 84.6704 88.9271" stroke="#231005" stroke-width="0.826005" stroke-miterlimit="10" stroke-linecap="round"/>
<path d="M45.5911 14.2922C45.5911 14.2922 43.2728 16.1168 39.6915 18.7305C38.6329 19.5074 37.4647 20.3509 36.2134 21.2336C32.0723 24.1692 27.0308 27.5685 22.0744 30.476C17.9359 32.911 13.8615 34.9987 10.4264 36.1796C5.48538 37.8816 1.87195 37.7146 1.2951 34.0222C1.2951 34.0222 0.735889 33.4699 0.459654 32.3312C0.239875 31.4291 0.194243 30.1629 0.741251 28.514C0.827891 28.2541 0.925461 27.984 1.04504 27.7025C1.04504 27.7025 1.00204 25.9236 0.731723 23.8602C0.536211 22.3856 0.86972 20.9574 1.59 19.7695C2.31014 18.576 3.42827 17.6281 4.79109 17.1249C5.07688 17.0241 5.37381 16.9343 5.6763 16.872C8.9325 16.1875 13.0624 15.1733 17.3883 13.7393C18.9603 13.224 20.5596 12.6478 22.153 12.0112C24.2739 11.1622 26.3887 10.2143 28.4147 9.14563C29.7659 8.43873 31.083 7.677 32.3336 6.855C34.5006 5.4441 36.4916 3.86358 38.1827 2.10846C39.2668 0.979074 41.1697 1.45854 41.6073 2.95936C42.2026 4.99904 42.9768 7.5554 43.7266 9.75941C44.2757 11.3644 44.8126 12.7876 45.2582 13.6937C45.3744 13.9299 45.4864 14.133 45.5911 14.2922Z" fill="#3370F8"/>
<path d="M43.7266 9.75922C40.6229 9.0056 37.5024 8.33468 34.4571 7.48166C33.751 7.28185 33.0449 7.07655 32.3337 6.8547C31.083 7.6767 29.7659 8.43854 28.4148 9.14544C33.8503 11.2076 39.6439 12.205 45.2582 13.6936C44.8126 12.7873 44.2757 11.3641 43.7266 9.75922ZM29.7537 15.1844C27.2037 14.1634 24.6811 13.0816 22.153 12.0109C20.5596 12.6476 18.9603 13.2238 17.3883 13.7391C19.9934 14.8149 22.5825 15.9349 25.1767 17.0217C28.7922 18.5434 32.4733 20.0042 36.2134 21.2333C37.4647 20.3507 38.6329 19.5071 39.6915 18.7303C36.3158 17.7249 33.0039 16.4879 29.7537 15.1844ZM21.7027 27.003C20.5562 23.8591 17.6821 21.9647 14.7671 20.6373C11.5429 19.1739 8.17786 18.1244 4.7911 17.1246C3.42828 17.6278 2.31015 18.5757 1.59001 19.7693C2.56626 20.0447 3.54247 20.3311 4.51881 20.6229C8.02144 21.6607 11.684 22.7361 14.8933 24.5082C16.1914 25.216 17.104 25.9382 17.9089 27.0741C17.92 27.1015 17.9978 27.2272 18.0478 27.2991C18.0478 27.3093 18.0588 27.3153 18.0589 27.3204L18.0644 27.3204C18.1145 27.4137 18.1645 27.4958 18.2091 27.5841C18.3092 27.7819 18.4041 27.9848 18.4878 28.1939C18.5326 28.3147 18.5718 28.4355 18.6165 28.5512C18.6276 28.5674 18.6331 28.5837 18.6332 28.5948L18.6388 28.606C18.6953 28.8539 18.7571 29.0956 18.8026 29.3487C18.7749 29.3041 18.7815 29.5085 18.8035 29.5084C18.7874 29.5685 18.7548 29.6521 18.7386 29.701C18.6949 29.7623 18.5749 29.9776 18.5476 30.0164C18.5476 30.0164 18.3561 30.2545 18.3069 30.3148C17.7047 30.9407 16.9087 31.3805 16.1398 31.753C14.7612 32.4057 13.0677 32.8607 11.7515 32.8457C8.94281 32.8125 6.19929 31.6214 3.82956 30.3133C2.79665 29.7463 1.77438 29.1183 0.741256 28.5127C0.194253 30.1627 0.239885 31.4289 0.459664 32.331C2.6254 33.5965 4.835 34.8282 7.23453 35.5533C8.29365 35.878 9.35763 36.0867 10.4264 36.1794C13.8615 34.9985 17.9359 32.9108 22.0745 30.4809C22.3655 29.3288 22.1332 28.1735 21.7027 27.003Z" fill="#9C8BF9"/>
<path d="M139.736 121.81L163.412 102.618C164.843 101.459 166.825 101.233 168.552 102.061C181.523 108.261 193.608 117.802 204.593 131.458C205.747 132.889 205.605 134.961 204.289 136.075L182.196 154.794C180.864 155.92 178.859 155.738 177.612 154.363C168.142 143.887 155.028 134.616 140.188 125.91C138.674 125.02 138.431 122.863 139.736 121.81Z" fill="#443D99"/>
<path d="M177.81 153.607C172.857 148.129 166.896 142.969 160.229 138.055C159.487 137.509 158.735 136.968 157.972 136.432C152.509 132.542 146.602 128.797 140.387 125.154C138.873 124.265 138.63 122.108 139.929 121.059L163.605 101.863C165.031 100.703 167.012 100.477 168.746 101.305C177.028 105.268 184.949 110.587 192.454 117.479C193.103 118.069 193.75 118.672 194.387 119.29C196.241 121.075 198.069 122.959 199.87 124.948C200.524 125.666 201.172 126.406 201.826 127.156C202.824 128.307 203.811 129.491 204.787 130.703C205.94 132.139 205.797 134.21 204.482 135.325L202.811 136.743L199.429 139.609L182.394 154.044C181.062 155.17 179.051 154.988 177.805 153.613L177.81 153.607Z" fill="#735BF6"/>
<path d="M141.154 121.321L163.942 102.846C165.317 101.732 167.221 101.512 168.889 102.312C181.379 108.283 193.006 117.463 203.58 130.61C204.69 131.991 204.552 133.986 203.286 135.056L182.02 153.072C180.738 154.158 178.804 153.982 177.607 152.656C168.492 142.574 155.864 133.646 141.582 125.263C140.124 124.406 139.893 122.331 141.147 121.316L141.154 121.321Z" fill="#9C8BF9"/>
<path d="M182.198 147.493C182.302 147.222 182.046 146.887 182.034 146.613C182.022 146.337 182.256 145.989 182.15 145.725C182.045 145.461 181.636 145.381 181.453 145.156C181.276 144.942 181.273 144.524 181.035 144.36C180.809 144.201 180.419 144.342 180.143 144.239C179.867 144.135 179.661 143.773 179.391 143.741C179.099 143.71 178.826 144.025 178.551 144.066C178.264 144.111 177.9 143.909 177.652 144.032C177.406 144.154 177.347 144.574 177.156 144.778C176.964 144.983 176.557 145.062 176.454 145.339C176.351 145.614 176.606 145.943 176.619 146.219C176.631 146.494 176.396 146.842 176.503 147.105C176.609 147.369 177.016 147.45 177.2 147.674C177.377 147.889 177.379 148.307 177.617 148.47C177.844 148.629 178.234 148.489 178.51 148.592C178.786 148.696 178.992 149.058 179.261 149.09C179.553 149.121 179.827 148.805 180.102 148.766C180.388 148.719 180.753 148.922 181 148.798C181.247 148.676 181.305 148.257 181.496 148.053C181.689 147.847 182.095 147.769 182.198 147.493Z" fill="#6F5CEC"/>
<path d="M202.823 136.744C201.848 136.947 200.869 137.096 199.939 137.211C196.28 137.655 192.506 137.341 188.954 136.347C187.161 135.84 185.412 135.172 183.755 134.317C182.259 133.538 180.652 132.649 179.4 131.477C186.634 129.267 194.217 127.326 201.832 127.156C201.184 126.406 200.53 125.671 199.876 124.948C199.237 124.99 198.589 125.043 197.95 125.102C193.024 125.564 188.173 126.6 183.405 127.898C181.602 128.393 179.804 128.91 178.012 129.459C177.945 129.19 177.926 128.914 177.969 128.628C178.08 127.911 178.556 127.281 179.054 126.777C180.572 125.254 182.608 124.197 184.497 123.223C187.666 121.591 191.001 120.36 194.388 119.296C193.751 118.677 193.103 118.075 192.455 117.484C190.289 118.19 188.146 118.984 186.059 119.904C183.615 120.986 181.242 122.244 179.049 123.77C177.436 124.897 175.886 126.442 175.644 128.493C175.576 129.076 175.629 129.627 175.774 130.154C169.777 132.055 163.854 134.208 157.968 136.449C158.731 136.984 159.483 137.525 160.223 138.072C165.752 136.003 171.303 134.028 176.926 132.246C177.575 133.03 178.388 133.703 179.19 134.276C180.876 135.478 182.688 136.465 184.587 137.28C188.357 138.906 192.513 139.741 196.627 139.741C197.547 139.736 198.488 139.703 199.43 139.615L202.811 136.749L202.823 136.744Z" fill="#C2BAF5"/>
<path d="M7.46675 56.5C7.01256 61.9427 11.3504 66.5886 16.2387 68.2682C22.363 70.3762 29.1071 68.0864 34.6317 65.3568C45.1869 60.1496 53.9524 52.1377 63.4026 45.2562C68.1187 41.8211 73.0517 38.633 78.3962 36.2625C83.5713 33.9703 89.6908 32.3065 95.2949 33.977C100.684 35.5815 103.967 40.5415 106.136 45.4365C107.993 49.6273 109.191 54.131 110.246 58.5796C112.541 68.2427 113.979 78.0865 115.383 87.9133C115.514 88.8321 115.646 89.7571 115.778 90.6759C115.927 91.7208 117.521 91.2664 117.367 90.2266C115.998 80.7404 114.678 71.2377 112.677 61.8598C111.658 57.0957 110.492 52.3334 108.825 47.751C107.165 43.1837 104.836 38.3944 101.035 35.2327C96.4433 31.4092 90.3005 31.0915 84.6854 32.3782C79.0318 33.6762 73.7222 36.4707 68.8495 39.5425C58.9562 45.7765 50.3937 53.8808 40.5116 60.1371C35.3694 63.3925 29.5671 66.6465 23.4141 67.2973C20.4148 67.6172 17.3345 67.2763 14.6773 65.7714C12.4676 64.5224 10.5074 62.562 9.60724 60.145C9.16557 58.9634 9.00455 57.7467 9.1077 56.4908C9.19538 55.4334 7.54347 55.4477 7.45577 56.5001L7.46675 56.5Z" fill="#BCDFF0"/>
<path d="M149.42 164.665C153.526 165.412 157.88 166.142 161.842 164.402C163.445 163.699 164.865 162.617 165.87 161.174C166.996 159.561 167.381 157.537 167.392 155.598C167.443 146.865 160.524 140.548 157.452 132.9C155.867 128.95 155.318 124.244 157.615 120.454C158.165 119.542 156.734 118.719 156.184 119.631C154.241 122.836 154.075 126.718 154.894 130.298C155.78 134.171 157.875 137.628 159.943 140.964C162.01 144.301 164.243 147.824 165.24 151.751C166.147 155.319 166.066 159.648 162.792 161.98C158.996 164.682 154.112 163.85 149.84 163.07C148.798 162.878 148.361 164.477 149.409 164.665L149.42 164.665Z" fill="#BCDFF0"/>
<path d="M190.998 114.864L189.09 114.655C187.642 114.499 186.219 115.096 185.311 116.23L184.113 117.729L184.323 115.822C184.48 114.373 183.883 112.95 182.749 112.042L181.25 110.845L183.156 111.054C184.606 111.211 186.028 110.614 186.937 109.479L188.134 107.98L187.925 109.887C187.767 111.336 188.365 112.759 189.498 113.667L190.998 114.864Z" fill="#FAEFCB"/>
<path d="M81.021 118.7L80.5475 119.695C80.1885 120.451 80.2433 121.337 80.6877 122.045L81.2769 122.979L80.2824 122.505C79.5256 122.145 78.6399 122.2 77.9324 122.644L76.9988 123.233L77.4723 122.24C77.8323 121.483 77.7775 120.596 77.3331 119.889L76.744 118.956L77.7374 119.43C78.4942 119.789 79.3809 119.734 80.0885 119.29L81.021 118.7Z" fill="#F6CFB0"/>
</g>
</svg>
