<svg width="253" height="258" viewBox="0 0 253 258" fill="none" xmlns="http://www.w3.org/2000/svg">
<g filter="url(#filter0_d_368_939)">
<path d="M30.3851 176.631L190.754 172.707C195.812 172.581 200.189 169.125 201.469 164.216L222.292 84.1615C223.432 79.773 220.023 75.529 215.479 75.695L66.0655 81.419C61.3346 81.5899 57.1644 84.581 55.4423 88.9826L24.5576 168.351C22.9774 172.392 26.0218 176.744 30.3737 176.644L30.3851 176.631Z" fill="#FF6600"/>
<path d="M217.287 86.4306L212.388 105.314L209.708 115.578L197.56 162.313C196.358 166.966 192.2 170.242 187.402 170.357L126.273 171.86L118.053 172.054L35.4143 174.085C31.2977 174.176 28.4096 170.047 29.9106 166.236L59.1863 90.9985C60.8157 86.8164 64.7664 84.0064 69.2372 83.8463L157.061 80.4755L165.284 80.1686L187.87 79.3091L198.231 78.9016L210.862 78.4281C215.171 78.2704 218.4 82.2936 217.314 86.4531L217.287 86.4306Z" fill="#FBC333"/>
<path d="M192.082 152.774C191.867 152.023 190.796 151.72 190.322 151.141C189.849 150.562 189.813 149.459 189.144 149.059C188.475 148.658 187.499 149.142 186.738 148.961C186.014 148.789 185.351 147.891 184.571 147.923C183.84 147.951 183.213 148.863 182.462 149.079C181.71 149.295 180.69 148.851 180.064 149.217C179.391 149.612 179.303 150.726 178.791 151.256C178.256 151.812 177.151 151.96 176.825 152.622C176.498 153.285 177.034 154.281 176.949 155.009C176.865 155.737 176.119 156.574 176.334 157.325C176.55 158.076 177.62 158.379 178.094 158.958C178.568 159.537 178.604 160.64 179.273 161.04C179.942 161.441 180.918 160.957 181.679 161.138C182.402 161.309 183.066 162.208 183.846 162.175C184.577 162.148 185.204 161.235 185.955 161.02C186.706 160.804 187.727 161.248 188.353 160.882C189.026 160.487 189.114 159.373 189.626 158.843C190.161 158.286 191.266 158.139 191.592 157.476C191.919 156.814 191.383 155.817 191.468 155.09C191.552 154.361 192.298 153.525 192.082 152.774Z" fill="#FF6600"/>
<path d="M165.258 80.1473C162.383 84.7265 159.703 89.3994 157.327 94.2557C154.567 99.8424 151.617 105.956 150.716 112.185C150.44 114.26 150.423 116.597 151.423 118.484C151.824 119.231 152.352 119.855 152.981 120.358C156.24 115.92 159.58 111.549 162.96 107.212C170.662 97.3844 178.817 87.9165 187.83 79.2766L198.192 78.8689C183.6 91.6904 171.22 107.188 159.799 122.711C164.832 123.296 170.183 122.549 175.097 121.778C180.508 120.876 185.816 119.362 190.911 117.42C198.588 114.466 205.856 110.392 212.376 105.304L209.695 115.568C201.287 120.949 191.965 124.967 182.293 127.278C176.365 128.66 170.342 129.529 164.255 129.683C161.364 129.729 158.257 129.569 155.336 128.859C145.567 142.41 136.285 156.277 127.256 170.334C126.903 170.837 126.586 171.325 126.26 171.851C126.215 171.904 126.194 171.956 126.163 172.021C123.429 172.015 120.724 172.056 117.986 172.137C118.008 172.11 118.031 172.083 118.04 172.045C118.377 171.506 118.701 170.955 119.065 170.438C128.652 155.388 138.51 140.451 148.916 125.949C147.675 124.978 146.548 123.761 145.72 122.269C142.655 116.987 143.595 110.63 145.443 105.124C147.903 97.6871 151.305 90.5154 155.172 83.6882C155.798 82.6131 156.411 81.5267 157.048 80.4653L165.271 80.1584L165.258 80.1473Z" fill="#FF6600"/>
</g>
<defs>
<filter id="filter0_d_368_939" x="20.1348" y="75.6902" width="206.379" height="108.956" filterUnits="userSpaceOnUse" color-interpolation-filters="sRGB">
<feFlood flood-opacity="0" result="BackgroundImageFix"/>
<feColorMatrix in="SourceAlpha" type="matrix" values="0 0 0 0 0 0 0 0 0 0 0 0 0 0 0 0 0 0 127 0" result="hardAlpha"/>
<feOffset dy="4"/>
<feGaussianBlur stdDeviation="2"/>
<feComposite in2="hardAlpha" operator="out"/>
<feColorMatrix type="matrix" values="0 0 0 0 0 0 0 0 0 0 0 0 0 0 0 0 0 0 0.25 0"/>
<feBlend mode="normal" in2="BackgroundImageFix" result="effect1_dropShadow_368_939"/>
<feBlend mode="normal" in="SourceGraphic" in2="effect1_dropShadow_368_939" result="shape"/>
</filter>
</defs>
</svg>
