<svg width="258" height="250" viewBox="0 0 258 250" fill="none" xmlns="http://www.w3.org/2000/svg">
<path d="M77.2546 30.8413L88.132 190.889C88.4766 195.937 92.1198 200.16 97.0797 201.226L177.962 218.556C182.396 219.505 186.488 215.915 186.125 211.382L173.924 62.3577C173.548 57.6387 170.379 53.6022 165.907 52.0726L85.2738 24.6601C81.168 23.2567 76.952 26.4871 77.2405 30.8306L77.2546 30.8413Z" fill="#FF9ECB"/>
<path d="M175.478 213.654L156.399 209.579L146.029 207.346L98.811 197.238C94.1097 196.238 90.6567 192.227 90.334 187.438L86.1801 126.432L85.6295 118.228L80.0161 35.7551C79.7461 31.6463 83.7467 28.5818 87.6188 29.9161L164.055 55.9003C168.304 57.3467 171.283 61.1718 171.637 65.6315L178.814 153.226L179.478 161.428L181.316 183.955L182.173 194.29L183.194 206.888C183.538 211.186 179.659 214.586 175.456 213.682L175.478 213.654Z" fill="#3370F8"/>
<path d="M108.104 191.351C108.845 191.103 109.101 190.02 109.659 189.522C110.217 189.023 111.317 188.94 111.688 188.254C112.059 187.568 111.533 186.614 111.681 185.846C111.821 185.116 112.689 184.414 112.624 183.636C112.565 182.907 111.626 182.32 111.377 181.579C111.129 180.838 111.529 179.799 111.136 179.189C110.712 178.534 109.596 178.494 109.044 178.006C108.465 177.496 108.269 176.398 107.593 176.101C106.917 175.804 105.945 176.382 105.214 176.329C104.483 176.276 103.615 175.567 102.874 175.815C102.133 176.063 101.876 177.146 101.318 177.644C100.76 178.143 99.6603 178.226 99.2895 178.912C98.9182 179.598 99.4441 180.552 99.2965 181.32C99.1561 182.05 98.2876 182.752 98.3535 183.53C98.4124 184.259 99.3519 184.846 99.5999 185.587C99.8477 186.328 99.4487 187.367 99.8417 187.977C100.265 188.632 101.382 188.672 101.934 189.16C102.513 189.67 102.708 190.768 103.385 191.065C104.06 191.362 105.032 190.784 105.763 190.837C106.495 190.89 107.362 191.599 108.104 191.351Z" fill="white"/>
<path d="M179.498 161.402C174.798 158.728 170.013 156.254 165.059 154.09C159.357 151.575 153.122 148.894 146.859 148.263C144.775 148.077 142.439 148.162 140.597 149.243C139.868 149.676 139.268 150.23 138.792 150.881C143.368 153.944 147.879 157.091 152.359 160.28C162.511 167.549 172.324 175.285 181.347 183.915L182.204 194.25C168.761 180.228 152.741 168.531 136.737 157.794C136.371 162.849 137.35 168.162 138.333 173.037C139.469 178.405 141.212 183.642 143.373 188.648C146.657 196.189 151.042 203.274 156.409 209.567L146.039 207.334C140.298 199.167 135.879 190.029 133.151 180.466C131.512 174.603 130.383 168.623 129.965 162.549C129.794 159.663 129.819 156.551 130.402 153.603C116.44 144.431 102.183 135.759 87.7476 127.348C87.2294 127.017 86.7283 126.722 86.1888 126.419C86.1333 126.376 86.0811 126.358 86.0146 126.329C85.9024 123.598 85.7441 120.897 85.5443 118.165C85.5721 118.186 85.6 118.208 85.6381 118.215C86.1917 118.529 86.7556 118.828 87.2879 119.17C102.74 128.095 118.091 137.295 133.03 147.063C133.946 145.78 135.113 144.602 136.568 143.71C141.712 140.419 148.104 141.082 153.685 142.689C161.222 144.824 168.534 147.912 175.523 151.479C176.624 152.058 177.736 152.623 178.824 153.214L179.487 161.415L179.498 161.402Z" fill="#FF9ECB"/>
</svg>
