<svg width="1448" height="1148" viewBox="0 0 1448 1148" fill="none" xmlns="http://www.w3.org/2000/svg">
<path fill-rule="evenodd" clip-rule="evenodd" d="M1129.35 492.366C1112.6 525.764 1098.07 547.955 1083.16 562.039C1057.54 586.236 1013.98 605.591 961.835 618.413C911.209 630.861 861.726 634.929 833.5 634.929V785.929C872.775 785.929 934.442 780.646 997.891 765.045C1059.82 749.817 1133.26 722.422 1186.84 671.818C1221.43 639.153 1245.47 597.656 1264.32 560.085C1273.94 540.907 1283.04 520.997 1291.61 502.251L1291.7 502.037C1300.43 482.945 1308.68 464.882 1317.43 447.265C1353.17 375.321 1388.76 329.16 1447.3 311.06L1402.7 166.798C1281.74 204.198 1221.83 300.287 1182.19 380.093C1172.35 399.92 1163.22 419.885 1154.81 438.304L1154.26 439.494C1145.5 458.666 1137.54 476.06 1129.35 492.366Z" fill="#F1C453"/>
<mask id="mask0_958_115" style="mask-type:luminance" maskUnits="userSpaceOnUse" x="21" y="82" width="918" height="973">
<path d="M21.2678 401.179L610.309 82.123L938.913 735.482L349.873 1054.54L21.2678 401.179Z" fill="white"/>
</mask>
<g mask="url(#mask0_958_115)">
<path d="M799.434 786.56C803.942 792.946 810.99 797.145 819.027 798.658C822.617 799.327 827.227 799.928 832.538 800.018C838.08 800.094 844.377 799.628 851.051 798.057C859.292 796.123 868.112 792.536 876.748 786.35C877.219 786.008 877.785 785.416 878.391 784.629C878.775 784.155 879.154 783.621 879.549 783.035C881.879 779.623 883.758 775.995 885.182 772.217C886.423 768.977 887.345 765.626 887.943 762.251C889.548 753.085 890.878 744.42 891.901 736.183C892.3 732.936 892.648 729.783 892.934 726.688C893.201 724.131 893.408 721.601 893.581 719.138C893.744 716.941 893.877 714.785 893.963 712.674C894.155 709.016 894.243 705.433 894.242 701.966C894.258 698.051 894.139 694.252 893.906 690.558C893.868 690.008 893.83 689.458 893.792 688.908C893.399 683.279 892.714 677.88 891.706 672.696C888.634 656.379 882.574 641.877 872.823 628.121C871.576 626.358 870.007 624.905 868.221 623.783C864.482 621.396 859.762 620.482 854.923 621.277L851.969 621.778L851.615 621.838L837.586 624.159L812.971 628.26L803.764 629.793C803.764 629.793 803.191 631.839 802.288 635.466C798.085 652.117 786.542 702.133 788.157 742.637C788.32 746.718 788.607 750.711 789.06 754.552C790.555 767.307 793.762 778.522 799.434 786.56Z" fill="#3370F8"/>
<path d="M884.088 700.014C886.735 700.531 889.455 701.142 891.927 702.125C891.942 698.217 891.824 694.425 891.592 690.738C891.554 690.189 891.516 689.64 891.479 689.091C878.564 685.809 864.515 686.819 850.977 686.857C844.167 686.885 837.207 686.905 830.747 685.257C827.669 684.448 824.689 683.321 822.157 681.516C820.24 680.122 818.736 678.176 818.262 676.241C817.627 673.694 818.04 671.477 818.932 669.131C819.908 666.61 821.461 664.191 823.372 661.688C827.52 656.267 833.072 651.461 838.365 646.8C847.299 638.897 856.498 631.33 865.979 624.092C862.251 621.709 857.544 620.797 852.717 621.591L849.772 622.09L849.419 622.151C840.34 629.432 831.546 637.041 823.172 644.972C813.042 654.575 802.126 667.932 806.679 681.485C811.422 695.654 829.374 698.419 843.315 698.804C856.833 699.154 870.973 697.477 884.088 700.014Z" fill="#9C8BF9"/>
<path d="M792.083 754.2C795.368 753.336 798.662 752.491 801.944 751.671C818.092 747.679 834.301 744.458 850.467 740.686C858.514 738.82 866.55 736.749 874.467 734.168C880.367 732.251 886.667 730.268 892.402 727.385C892.66 724.911 892.864 722.47 893.032 720.091C893.192 717.968 893.321 715.885 893.405 713.846C890.265 716.284 886.097 717.962 882.852 719.271C867.68 725.345 851.739 728.869 836.003 732.26C821.022 735.495 806.084 738.856 791.219 742.687C791.375 746.633 791.65 750.491 792.083 754.2Z" fill="#9C8BF9"/>
<path d="M800.996 749.884C801.546 743.313 803.104 735.824 807.723 730.312C811.87 725.385 817.328 723.866 823.29 723.398C835.438 722.424 845.348 728.778 853.369 736.109C862.57 744.539 870.437 754.134 878.158 763.828C880.468 766.74 882.826 769.602 885.153 772.504C883.724 776.292 881.837 779.93 879.499 783.351C879.101 783.939 878.721 784.474 878.335 784.949C874.178 779.467 869.9 774.079 865.573 768.69C857.862 759.078 849.828 749.004 839.932 741.388C835.951 738.302 832.401 736.458 827.541 735.584C827.435 735.573 826.901 735.512 826.615 735.468C826.568 735.47 826.533 735.444 826.513 735.455L826.493 735.467C826.134 735.418 825.782 735.39 825.44 735.375C824.634 735.35 823.835 735.341 823.017 735.386C822.555 735.417 822.078 735.476 821.632 735.495C821.556 735.492 821.511 735.496 821.464 735.498L821.427 735.518C820.502 735.688 819.597 735.847 818.682 736.079C818.858 736.092 818.162 736.38 818.127 736.312C817.937 736.458 817.688 736.68 817.535 736.806L817.518 736.816C817.381 737.025 816.793 737.716 816.677 737.866C816.677 737.866 816.107 738.834 815.943 739.077C814.514 741.919 813.951 745.084 813.595 748.094C812.976 753.446 813.432 759.493 815.035 763.669C818.48 772.546 825.824 779.54 833.124 785.147C838.936 789.619 845.263 793.685 850.888 798.413C844.187 799.988 837.865 800.456 832.301 800.379C824.704 794.846 816.988 789.265 811.107 782.033C803.722 772.972 799.991 762.091 800.996 749.884ZM803.407 629.709L812.651 628.171C823.547 647.635 838.611 664.542 854.289 680.39C867.24 693.488 880.901 705.955 893.584 719.286C893.207 724.774 892.632 730.452 891.898 736.376C879.836 722.797 866.401 710.358 853.412 697.658C834.128 678.805 815.282 658.879 801.925 635.397C802.832 631.76 803.407 629.709 803.407 629.709ZM851.801 621.673C859.754 632.386 867.036 643.636 875.163 654.08C880.205 660.553 885.601 667.058 891.7 672.722C892.807 678.441 893.534 684.409 893.909 690.631C890.402 688.346 887.127 685.714 884.008 682.953C865.131 666.104 852.839 643.691 837.364 624.059L851.801 621.673Z" fill="#9C8BF9"/>
<path d="M823.075 783.464C834.324 772.408 837.941 761.53 840.855 750.168C842.255 744.75 843.346 739.542 844.189 734.559C847.127 717.173 846.895 702.313 844.766 689.736C844.369 687.276 843.877 684.912 843.331 682.641C833.656 642.417 804.243 628.033 804.243 628.033L798.687 674.498L794.938 705.779L789.307 752.864C803.206 800.715 823.075 783.464 823.075 783.464Z" fill="black"/>
<path d="M647.638 774.142C650.502 776.073 653.687 777.552 657.127 778.604C662.397 780.233 668.263 780.867 674.437 780.764C712.301 780.21 762.023 752.092 762.023 752.092L782.216 749.987C784.668 749.727 787.106 749.207 789.473 748.403L790.289 748.138L821.005 743.638L841.959 740.553C844.842 723.413 848.684 706.823 844.608 685.917C844.379 684.712 844.163 683.524 843.935 682.362C843.698 681.184 843.46 680.047 843.204 678.924L843.184 678.935L826.08 675.771L799.487 670.889L762.039 664.01L730.87 618.128L727.63 613.329L727.577 613.224L719.652 601.599L685.991 600.704L652.581 619.842L625.231 635.522L625.211 635.533L612.651 642.737L612.577 642.777L602.361 648.619L640.843 755.282L645.723 768.822L647.638 774.142Z" fill="#A44303"/>
<path d="M320.016 549.478C320.228 549.901 320.463 550.317 320.712 550.721C320.892 551.037 321.101 551.353 321.301 551.659C321.395 551.803 321.516 551.952 321.63 552.128C321.862 552.456 322.11 552.755 322.354 553.056C322.656 553.43 322.955 553.788 323.262 554.121C323.946 554.875 324.677 555.58 325.42 556.215C325.784 556.518 326.133 556.8 326.471 557.094C326.551 557.16 326.622 557.207 326.692 557.255C327.784 558.069 328.874 558.797 329.918 559.422C333.134 561.333 335.925 562.263 336.546 562.469L336.654 562.496L336.674 562.486L342.249 562.401L348.934 562.278L595.383 557.838L686.788 556.191L753.216 547.022L771.058 524.209L770.768 513.464L770.751 513.43L770.771 513.419L769.349 461.061L768.195 419.308C768.076 417.104 767.271 415.03 765.909 413.347C765.752 413.128 765.551 412.913 765.34 412.68L758.963 406.06C756.74 403.783 753.669 402.441 750.277 402.333C741.836 402.046 723.81 401.442 700.4 400.645C681.069 399.967 658.065 399.185 633.803 398.331C609.968 397.48 584.925 396.574 560.899 395.674C550.02 395.261 539.358 394.856 529.125 394.46C479.498 392.523 439.851 390.756 434.063 389.85C432.175 389.554 430.375 389.34 428.674 389.181C422.251 388.557 417.018 388.713 413.258 389.043C411.564 389.184 410.178 389.374 409.113 389.542C407.486 389.819 406.619 390.051 406.619 390.051C406.619 390.051 406.553 390.064 406.452 390.099C406.378 390.139 406.27 390.151 406.123 390.188C405.691 390.316 404.987 390.503 404.062 390.766C403.879 390.823 403.649 390.881 403.421 390.943C402.971 391.077 402.476 391.217 401.944 391.373C401.572 391.469 401.205 391.583 400.811 391.687C399.948 391.936 399.005 392.213 397.99 392.483C397.54 392.618 397.063 392.748 396.576 392.903C396.065 393.051 395.532 393.207 394.993 393.351C394.379 393.532 393.738 393.708 393.088 393.908C392.711 394.003 392.344 394.117 391.959 394.239C391.566 394.343 391.182 394.466 390.785 394.572C390.541 394.642 390.291 394.711 390.045 394.778C388.753 395.155 387.397 395.547 385.996 395.936C384.583 396.359 383.128 396.781 381.634 397.22C380.405 397.587 379.157 397.959 377.915 398.332C375.147 399.142 372.305 399.989 369.49 400.848C367.959 401.308 366.427 401.772 364.924 402.244C364.384 402.384 363.853 402.544 363.329 402.718C362.311 403.032 361.314 403.335 360.312 403.64C360.259 403.669 360.202 403.7 360.149 403.686C359.241 403.983 358.343 404.256 357.463 404.514C355.354 405.182 353.307 405.839 351.365 406.459C349.181 407.172 347.126 407.853 345.237 408.487C344.841 408.636 344.453 408.76 344.069 408.883C343.932 408.938 343.796 408.988 343.648 409.025C342.648 409.373 341.713 409.708 340.839 410.03C340.499 410.148 340.158 410.271 339.847 410.396C339.331 410.586 338.834 410.77 338.356 410.943C338.116 411.073 337.871 411.144 337.63 411.228C337.218 411.389 336.831 411.556 336.464 411.712C336.227 411.798 335.994 411.901 335.783 411.996C335.553 412.097 335.341 412.189 335.146 412.275C326.026 416.441 323.394 421.31 322.636 423.689C322.313 424.645 322.315 425.206 322.315 425.206C322.315 425.206 322.306 425.426 322.274 425.877C322.258 426.167 322.245 426.521 322.22 426.988C322.204 427.235 322.188 427.482 322.168 427.773C322.156 428.214 322.128 428.725 322.102 429.282C322.055 430.127 322.007 431.063 321.956 432.13C321.912 432.93 321.875 433.794 321.818 434.712C321.818 434.755 321.815 434.799 321.804 434.829C321.767 435.778 321.716 436.802 321.662 437.87C321.592 438.99 321.542 440.16 321.475 441.388C321.46 441.916 321.432 442.47 321.386 443.037C321.165 447.656 320.889 452.957 320.622 458.659C320.574 459.833 320.518 461.031 320.454 462.257C320.442 462.521 320.435 462.786 320.407 463.06C320.363 463.86 320.328 464.68 320.294 465.499C320.297 465.649 320.291 465.781 320.278 465.941C320.202 467.431 320.136 468.939 320.06 470.472C320.073 470.641 320.058 470.797 320.044 470.957C319.986 472.481 319.912 474.016 319.833 475.551C319.827 475.726 319.822 475.901 319.818 476.079C319.705 478.67 319.588 481.288 319.475 483.879C319.416 485.403 319.341 486.936 319.274 488.444C319.231 489.526 319.177 490.594 319.153 491.669C319.123 492.549 319.077 493.397 319.043 494.259C319.022 495.114 318.988 495.976 318.941 496.822C318.902 498.292 318.839 499.756 318.783 501.192C318.711 503.113 318.642 504.989 318.581 506.838C318.547 507.658 318.512 508.477 318.487 509.272C318.392 512.221 318.307 515.055 318.214 517.769C318.175 519.239 318.139 520.665 318.112 522.066C318.091 523.006 318.07 523.904 318.05 524.801C318.005 526.818 317.96 528.7 317.951 530.459C317.948 531.39 317.936 532.306 317.926 533.175C317.916 535.539 317.929 537.586 317.964 539.297C317.971 539.684 317.986 540.043 318.004 540.4C318.013 540.614 318.017 540.807 318.021 541C318.04 541.462 318.064 541.882 318.088 542.26C318.095 542.409 318.113 542.547 318.12 542.696C318.127 542.802 318.15 542.898 318.155 543.001C318.198 543.368 318.242 543.735 318.294 544.074C318.487 545.441 318.863 546.706 319.313 547.891C319.515 548.429 319.76 548.968 320.016 549.478Z" fill="#68DACB"/>
<path d="M324.958 550.909C325.171 551.333 325.402 551.742 325.65 552.146C325.827 552.457 326.033 552.775 326.23 553.075C326.326 553.216 326.447 553.364 326.56 553.539C326.79 553.864 327.032 554.163 327.278 554.459C327.578 554.831 327.874 555.186 328.179 555.517C328.857 556.265 329.582 556.964 330.32 557.595C330.678 557.897 331.03 558.178 331.363 558.466C331.443 558.532 331.512 558.579 331.582 558.626C332.664 559.439 333.748 560.157 334.783 560.777C337.974 562.673 340.744 563.597 341.36 563.801L341.467 563.829L341.487 563.818L347.02 563.736L353.651 563.62L598.217 559.275L688.924 557.665L754.851 548.583C763.771 542.052 769.529 534.468 772.56 525.957L420.696 526.549L415.334 527.526L323.078 544.181C323.078 544.181 323.108 544.382 323.112 544.484C323.156 544.848 323.196 545.213 323.25 545.548C323.439 546.906 323.815 548.159 324.261 549.335C324.462 549.869 324.705 550.404 324.958 550.909Z" fill="#62998F"/>
<path d="M320.371 541.76C320.585 542.187 320.821 542.605 321.072 543.011C321.253 543.329 321.464 543.647 321.665 543.954C321.76 544.1 321.882 544.25 321.997 544.427C322.23 544.756 322.48 545.057 322.726 545.36C323.03 545.737 323.331 546.097 323.64 546.432L349.935 536.87L397.722 521.23L412.052 518.009L414.227 380.334C412.521 380.477 411.126 380.667 410.053 380.837C408.416 381.116 407.542 381.35 407.542 381.35C407.542 381.35 407.476 381.362 407.374 381.398C407.3 381.438 407.191 381.45 407.043 381.487C406.608 381.616 405.9 381.804 404.969 382.069C404.764 382.137 404.553 382.185 404.323 382.247C403.87 382.382 403.372 382.523 402.836 382.68C402.462 382.777 402.092 382.891 401.696 382.996C400.827 383.247 399.878 383.526 398.856 383.797C398.403 383.933 397.93 384.08 397.432 384.22C396.917 384.369 396.381 384.526 395.839 384.671C395.221 384.853 394.575 385.03 393.92 385.232C393.541 385.328 393.171 385.442 392.785 385.565C392.389 385.67 392.002 385.793 391.603 385.9C391.356 385.971 391.105 386.04 390.857 386.108C389.556 386.487 388.191 386.882 386.781 387.273C385.359 387.699 383.893 388.124 382.389 388.566C381.172 388.924 379.916 389.299 378.645 389.685C375.859 390.501 372.997 391.353 370.164 392.218C368.623 392.68 367.08 393.148 365.567 393.623C365.023 393.764 364.489 393.925 363.962 394.1C362.937 394.416 361.932 394.721 360.924 395.028C360.871 395.058 360.814 395.089 360.76 395.075C359.846 395.374 358.941 395.648 358.055 395.908C355.932 396.581 353.872 397.242 351.917 397.866C349.718 398.583 347.649 399.269 345.748 399.907C345.349 400.057 344.962 400.18 344.572 400.305C344.433 400.361 344.296 400.412 344.148 400.449C343.15 400.817 342.199 401.136 341.32 401.46C340.978 401.579 340.637 401.701 340.321 401.829C339.802 402.02 339.301 402.205 338.821 402.379C338.579 402.51 338.332 402.581 338.089 402.666C337.675 402.828 337.285 402.996 336.915 403.153C336.677 403.239 336.442 403.343 336.23 403.439C335.999 403.54 335.785 403.633 335.589 403.719C326.408 407.913 323.758 412.811 322.995 415.205C322.67 416.167 322.672 416.732 322.672 416.732C322.672 416.732 322.663 416.953 322.631 417.407C322.615 417.698 322.602 418.055 322.577 418.524C322.56 418.773 322.544 419.021 322.525 419.315C322.512 419.758 322.484 420.272 322.458 420.832C322.411 421.683 322.363 422.625 322.312 423.697C322.268 424.503 322.21 425.383 322.173 426.295C322.173 426.338 322.17 426.383 322.159 426.413C322.101 427.379 322.07 428.398 322.016 429.472C321.945 430.599 321.896 431.777 321.829 433.012C321.813 433.543 321.785 434.1 321.739 434.672C321.517 439.318 321.239 444.652 320.971 450.388C320.907 451.578 320.85 452.784 320.802 454.008C320.791 454.274 320.784 454.541 320.755 454.816C320.731 455.611 320.693 456.437 320.642 457.27C320.645 457.422 320.639 457.554 320.626 457.715C320.55 459.214 320.483 460.731 320.407 462.274C320.42 462.443 320.405 462.601 320.392 462.761C320.332 464.294 320.258 465.839 320.179 467.383C320.173 467.559 320.168 467.735 320.164 467.914C320.05 470.522 319.933 473.155 319.82 475.763C319.761 477.296 319.685 478.838 319.618 480.355C319.592 481.434 319.55 482.526 319.496 483.6C319.466 484.485 319.424 485.337 319.386 486.206C319.365 487.066 319.331 487.933 319.283 488.784C319.244 490.263 319.181 491.736 319.124 493.181C319.053 495.113 318.984 497.001 318.922 498.862C318.888 499.686 318.853 500.51 318.827 501.31C318.732 504.277 318.648 507.128 318.553 509.859C318.534 511.327 318.487 512.791 318.451 514.182C318.431 515.128 318.41 516.031 318.389 516.934C318.355 518.933 318.32 520.846 318.291 522.626C318.287 523.563 318.276 524.485 318.266 525.358C318.256 527.737 318.269 529.797 318.305 531.518C318.312 531.907 318.327 532.268 318.345 532.628C318.354 532.843 318.358 533.037 318.362 533.232C318.381 533.696 318.406 534.119 318.43 534.499C318.437 534.649 318.455 534.788 318.462 534.937C318.469 535.044 318.492 535.141 318.497 535.245C318.541 535.614 318.585 535.983 318.637 536.324C318.832 537.699 319.21 538.972 319.664 540.164C319.868 540.706 320.114 541.248 320.371 541.76Z" fill="#A1E8DF"/>
<path d="M396.025 394.549L426.855 392.57L424.287 381.743C415.015 380.838 408.198 381.555 404.773 382.119L396.034 394.567L396.025 394.549Z" fill="#AFE5DE"/>
<path d="M320.094 413.762L396.164 392.752L404.761 380.602C403.166 380.853 402.304 381.062 402.304 381.062C402.304 381.062 344.762 397.041 332.366 402.647C323.428 406.682 320.849 411.42 320.113 413.752L320.094 413.762Z" fill="#99DED4"/>
<path d="M426.996 400.613L562.619 406.023L616.624 408.179L760.736 413.926C760.553 413.702 760.352 413.488 760.142 413.255L753.783 406.653C751.585 404.372 748.505 403.044 745.142 402.929C729.427 402.391 680.377 400.76 625.444 398.804C601.836 397.952 577.128 397.051 553.532 396.173C491.28 393.83 436.685 391.518 429.804 390.461C427.93 390.184 426.152 389.961 424.446 389.784L426.996 400.613Z" fill="#99DED4"/>
<path d="M321.221 476.095L399.273 458.109L430.347 457.211C432.884 457.138 434.875 458.979 434.867 461.456C434.858 464.122 432.564 466.471 429.79 466.63L398.774 468.285L320.749 486.66L321.201 476.106L321.221 476.095Z" fill="#507F77"/>
<path d="M649.058 772.544C651.956 774.488 655.17 775.977 658.653 777.038L703.51 767.836C728.222 759.804 725.198 742.114 725.198 742.114L694.895 624.771L693.43 620.053L668.304 631.493L647.123 767.176L649.058 772.544Z" fill="black"/>
<path d="M597.85 782.174L615.336 780.968C617.605 780.814 619.882 780.395 622.108 779.737C644.128 773.181 677.078 761.48 694.764 755.07C702.396 752.304 707.438 744.833 706.654 737.331C703.828 710.72 691.424 660.906 679.645 623.022C665.446 577.294 691.262 564.646 691.262 564.646C699.149 560.157 693.258 556.54 693.258 556.54L583.73 557.32L547.313 563.082C560.915 587.619 561.874 609.098 546.509 626.585L578.968 627.882C600.599 661.902 595.3 757.011 595.3 757.011C593.356 761.181 592.29 765.051 591.729 768.45C591.199 771.721 591.163 774.549 591.311 776.799C591.539 780.1 594.393 782.396 597.841 782.155L597.85 782.174Z" fill="#68DACB"/>
<path fill-rule="evenodd" clip-rule="evenodd" d="M609.698 568.937C608.007 571.857 607.746 575.607 609.87 578.707L609.872 578.708C620.643 594.373 630.287 620.792 635.208 647.695C640.139 674.652 640.246 701.656 632.36 718.626C625.797 732.76 623.839 742.543 624.236 749.35C624.638 756.236 627.451 760.029 630.19 762.051C630.19 762.052 630.191 762.052 630.192 762.053L631.059 760.828L630.188 762.05C630.189 762.051 630.189 762.051 630.19 762.051C632.569 763.817 635.757 764.055 638.6 763.102L638.604 763.101C646.715 760.355 669.433 752.655 682.26 748.268L682.262 748.268C690.457 745.455 694.111 741.429 695.594 737.821C696.324 736.044 696.492 734.449 696.472 733.285C696.463 732.703 696.406 732.228 696.349 731.887C696.321 731.716 696.292 731.578 696.268 731.477C696.257 731.427 696.246 731.385 696.238 731.353C696.236 731.345 696.234 731.337 696.232 731.33L696.238 731.353C696.238 731.354 696.238 731.354 694.812 731.732L693.405 732.178L693.405 732.176C693.405 732.177 693.405 732.178 694.812 731.732L693.387 732.11L693.396 732.145L693.402 732.166C693.401 732.164 693.401 732.165 693.402 732.167C693.402 732.168 693.402 732.168 693.402 732.168C693.404 732.174 693.407 732.187 693.412 732.207C693.422 732.251 693.438 732.327 693.456 732.431C693.491 732.641 693.531 732.964 693.537 733.375C693.551 734.196 693.434 735.361 692.891 736.683C691.827 739.272 688.982 742.801 681.363 745.416L681.812 746.842L681.361 745.416C681.362 745.416 681.362 745.416 681.363 745.416C668.541 749.801 645.828 757.499 637.716 760.245C637.717 760.245 637.718 760.245 637.719 760.244L638.16 761.673L637.716 760.245C637.716 760.245 637.716 760.245 637.716 760.245C635.575 760.962 633.406 760.702 631.93 759.606L631.927 759.604C629.903 758.11 627.517 755.141 627.167 749.133C626.811 743.044 628.549 733.8 635.007 719.891C635.008 719.891 635.007 719.891 635.007 719.891C643.315 702.012 643.049 674.2 638.093 647.105C633.127 619.956 623.371 593.087 612.279 576.955C612.279 576.956 612.279 576.956 612.28 576.957L611.075 577.831L612.279 576.955C612.279 576.955 612.279 576.955 612.279 576.955C610.919 574.97 611.019 572.517 612.218 570.448C613.419 568.374 615.679 566.795 618.46 566.699L664.907 565.095C669.174 565.336 671.55 569.419 669.707 573.37L669.706 573.373C667.597 577.918 665.389 583.507 664.019 589.335C662.653 595.15 662.097 601.307 663.393 606.937C665.503 616.084 673.004 647.383 679.973 676.384C683.458 690.887 686.812 704.818 689.294 715.124C690.535 720.277 691.559 724.524 692.272 727.482L693.386 732.106L693.387 732.109C693.387 732.11 693.387 732.11 694.812 731.732C696.22 731.286 696.22 731.287 696.22 731.289L696.221 731.291L696.223 731.297L696.227 731.312C696.228 731.318 696.23 731.324 696.232 731.33L695.122 726.726C694.409 723.768 693.386 719.521 692.145 714.368C689.662 704.063 686.309 690.132 682.824 675.629C675.852 646.621 668.357 615.341 666.251 606.211C665.099 601.212 665.565 595.572 666.873 590.004C668.178 584.449 670.297 579.069 672.353 574.639C675.281 568.36 670.95 561.854 664.198 562.081L663.209 562.115L663.197 562.145L618.399 563.693C618.399 563.693 618.399 563.693 618.399 563.693C614.548 563.825 611.387 566.022 609.698 568.937Z" fill="#62998F"/>
<path d="M593.19 767.854C600.428 770.109 613.457 766.013 613.457 766.013L626.041 755.267C650.396 688.695 612.96 643.155 590.791 623.837C586.701 620.273 585.278 614.636 587.163 609.2L594.768 587.367L584.981 554.122L547.769 559.956C561.67 584.796 562.652 606.541 546.953 624.245L562.856 627.434C592.738 656.486 596.82 756.283 596.82 756.283C594.835 760.505 593.745 764.423 593.172 767.864L593.19 767.854Z" fill="#62998F"/>
<path d="M557.377 577.823C557.377 577.823 590.034 594.744 569.082 614.841L551.562 613.926C551.562 613.926 561.98 583.575 557.36 577.832L557.377 577.823Z" fill="black"/>
<path d="M548.285 562.94L553.409 573.552C553.409 573.552 572.448 587.865 565.064 600.603C565.064 600.603 555.825 618.993 533.135 608.187C531.444 607.394 529.901 606.367 528.581 605.112C523.51 600.3 512.426 586.671 527.883 570.439C530.754 567.413 534.552 565.381 538.554 564.661L548.285 562.94Z" fill="#A44303"/>
<path d="M556.32 590.731C557.546 589.063 556.835 586.941 554.902 586.639C548.551 585.654 537.357 585.138 534.45 592.756C530.898 602.117 539.326 607.227 548.603 609.219C550.593 609.644 552.61 607.94 552.499 605.93C552.279 601.948 552.668 595.742 556.345 590.738L556.32 590.731Z" fill="#FCD164"/>
<path fill-rule="evenodd" clip-rule="evenodd" d="M543.14 569.482L543.147 569.484L543.181 569.493C543.212 569.501 543.261 569.514 543.325 569.532C543.453 569.568 543.645 569.624 543.889 569.703C544.378 569.862 545.078 570.114 545.911 570.482C547.578 571.218 549.761 572.412 551.837 574.243C552.143 574.514 552.608 574.475 552.876 574.158C553.144 573.84 553.112 573.363 552.806 573.093C550.59 571.138 548.27 569.871 546.508 569.093C545.626 568.704 544.88 568.435 544.351 568.263C544.087 568.177 543.876 568.115 543.73 568.074C543.657 568.054 543.6 568.039 543.56 568.028L543.513 568.016L543.5 568.013L543.496 568.012L543.495 568.012C543.494 568.012 543.494 568.012 543.317 568.747L543.494 568.012C543.099 567.917 542.699 568.169 542.602 568.575C542.504 568.981 542.745 569.387 543.14 569.482Z" fill="#231005"/>
<path fill-rule="evenodd" clip-rule="evenodd" d="M525.697 581.815C525.424 581.51 524.959 581.493 524.657 581.778L525.151 582.331C524.657 581.778 524.657 581.779 524.657 581.779L524.656 581.779L524.655 581.78L524.652 581.784L524.641 581.794C524.632 581.803 524.62 581.815 524.605 581.83C524.574 581.86 524.532 581.903 524.48 581.958C524.375 582.067 524.23 582.225 524.062 582.426C523.728 582.825 523.294 583.401 522.904 584.105C522.132 585.499 521.474 587.505 522.266 589.632C522.411 590.02 522.836 590.21 523.216 590.056C523.595 589.902 523.786 589.462 523.642 589.074C523.073 587.547 523.514 586.042 524.181 584.839C524.51 584.244 524.881 583.749 525.171 583.403C525.316 583.231 525.438 583.097 525.523 583.009C525.565 582.964 525.598 582.931 525.619 582.91L525.642 582.888L525.646 582.884L525.646 582.884C525.947 582.599 525.97 582.121 525.697 581.815Z" fill="#231005"/>
<path d="M679.965 693.476C679.965 693.476 684.638 711.764 655.303 719.007L654.176 739.042C654.176 739.042 651.25 749.017 636.872 754.143C622.496 759.271 606.572 762.02 597.548 757.977L611.392 663.388L624.93 642.026L662.853 659.578C662.853 659.578 665.336 672.084 654.722 679.256L679.982 693.467L679.965 693.476Z" fill="black"/>
<path d="M652.932 648.156C652.932 648.156 670.969 642.172 681.92 632.451L676.342 615.433L645.305 636.294L647.972 649.919L652.932 648.156Z" fill="black"/>
<path d="M574.665 630.504L603.925 642.7C603.925 642.7 664.184 632.328 662.429 658.343C662.429 658.343 662.591 669.384 650.178 675.492C650.178 675.492 681.774 672.886 679.615 692.302C677.453 711.72 645.891 711.832 645.891 711.832C645.891 711.832 662.851 712.86 661.365 727.269C659.882 741.676 620.385 755.896 600.18 754.154L596.899 757.026C596.899 757.026 568.563 754.012 566.043 747.206C566.043 747.206 553.402 731.09 572.55 717.83C572.55 717.83 553.265 712.608 547.971 704.742C547.971 704.742 537.864 687.736 557.707 672.261C557.707 672.261 542.189 666.839 538.083 659.578C538.083 659.578 528.168 644.332 540.984 633.666L551.379 626.725L564.315 628.812L574.655 630.486L574.665 630.504Z" fill="#A44303"/>
<path d="M669.462 689.424C666.987 692.916 664.502 698.546 667.759 704.661C668.611 706.265 667.369 708.351 665.421 708.427C657.469 708.811 641.835 708.472 636.844 700.6C636.844 700.6 632.316 692.802 643.417 687.78C650.877 684.384 661.517 684.652 667.709 685.183C669.81 685.369 670.73 687.627 669.462 689.424Z" fill="#FCD164"/>
<path d="M648.149 654.483C646.216 658.24 644.629 664.087 648.865 669.529C649.983 670.961 649.059 673.153 647.118 673.557C639.208 675.116 623.504 677.108 617.257 670.244C617.257 670.244 611.492 663.357 621.799 656.811C628.737 652.417 639.432 651.06 645.706 650.647C647.847 650.507 649.119 652.568 648.129 654.494L648.149 654.483Z" fill="#FCD164"/>
<path d="M651.2 719.878C651.095 723.095 651.525 728.683 655.15 731.975C656.242 732.984 655.7 734.856 654.185 735.44C647.501 738.05 633.956 742.085 628.197 734.869C628.197 734.869 624.679 725.327 648.755 718.153C650.038 717.758 651.239 718.603 651.207 719.851L651.2 719.878Z" fill="#FCD164"/>
<path fill-rule="evenodd" clip-rule="evenodd" d="M585.033 750.947C584.879 751.336 585.059 751.775 585.435 751.927C589.486 753.567 593.977 754.336 597.436 754.698C599.169 754.879 600.652 754.959 601.703 754.994C602.229 755.012 602.647 755.018 602.935 755.019C603.079 755.02 603.191 755.02 603.267 755.019L603.354 755.019L603.377 755.018L603.383 755.018L603.385 755.018C603.385 755.018 603.386 755.018 603.385 754.307L603.385 755.018C603.791 755.011 604.121 754.667 604.121 754.249C604.12 753.831 603.79 753.498 603.384 753.505C603.384 753.505 603.384 753.505 603.384 753.505L603.379 753.505L603.359 753.505L603.28 753.506C603.21 753.506 603.104 753.507 602.966 753.506C602.69 753.504 602.285 753.498 601.773 753.482C600.749 753.448 599.301 753.369 597.607 753.192C594.211 752.837 589.867 752.086 585.992 750.518C585.616 750.366 585.187 750.558 585.033 750.947Z" fill="#231005"/>
<path fill-rule="evenodd" clip-rule="evenodd" d="M574.517 718.248C574.492 718.665 574.8 719.02 575.206 719.04L611.376 720.824C619.7 721.247 628.21 719.942 636.327 717.018C636.327 717.018 636.327 717.018 636.327 717.018L646.92 713.206C647.305 713.068 647.513 712.636 647.384 712.242C647.254 711.847 646.837 711.64 646.452 711.779L635.859 715.59C627.918 718.452 619.598 719.726 611.47 719.313L575.298 717.529C574.892 717.509 574.543 717.831 574.517 718.248Z" fill="#231005"/>
<path fill-rule="evenodd" clip-rule="evenodd" d="M612.618 692.846C612.251 692.67 611.81 692.833 611.634 693.21L612.3 693.528C611.634 693.21 611.634 693.21 611.634 693.21L611.633 693.214L611.629 693.222L611.616 693.25C611.605 693.275 611.589 693.31 611.569 693.355C611.529 693.445 611.473 693.576 611.403 693.744C611.265 694.078 611.077 694.558 610.874 695.146C610.468 696.32 609.997 697.94 609.746 699.709C609.25 703.2 609.583 707.567 613.392 709.967C613.737 710.185 614.192 710.073 614.409 709.719C614.625 709.364 614.521 708.9 614.176 708.682C611.142 706.771 610.733 703.24 611.206 699.91C611.439 698.269 611.879 696.749 612.265 695.635C612.457 695.079 612.634 694.628 612.762 694.317C612.826 694.162 612.878 694.042 612.913 693.962C612.931 693.922 612.944 693.892 612.953 693.873L612.963 693.852L612.965 693.847C612.965 693.847 612.965 693.847 612.965 693.847M612.618 692.846C612.986 693.021 613.141 693.47 612.965 693.847L612.618 692.846Z" fill="#231005"/>
<path fill-rule="evenodd" clip-rule="evenodd" d="M608.526 733.694C608.128 733.604 607.732 733.861 607.641 734.267L608.361 734.428C607.641 734.267 607.641 734.266 607.641 734.267L607.64 734.269L607.639 734.275L607.635 734.295C607.631 734.312 607.626 734.336 607.619 734.367C607.607 734.428 607.589 734.518 607.567 734.631C607.524 734.859 607.467 735.184 607.409 735.581C607.294 736.373 607.176 737.461 607.165 738.635C607.154 739.805 607.25 741.092 607.582 742.268C607.913 743.443 608.497 744.568 609.505 745.322C609.832 745.567 610.295 745.494 610.538 745.158C610.781 744.823 610.713 744.352 610.386 744.107C609.728 743.615 609.28 742.83 609.002 741.842C608.724 740.856 608.632 739.727 608.642 738.637C608.652 737.551 608.762 736.536 608.87 735.789C608.924 735.416 608.978 735.113 609.017 734.904C609.037 734.8 609.053 734.72 609.064 734.666C609.07 734.639 609.074 734.619 609.077 734.607L609.08 734.593L609.081 734.59C609.081 734.59 609.081 734.59 609.081 734.59M609.081 734.59C609.081 734.59 609.081 734.59 609.081 734.59C609.171 734.184 608.923 733.783 608.526 733.694L609.081 734.59Z" fill="#231005"/>
<path fill-rule="evenodd" clip-rule="evenodd" d="M557.49 671.921C557.372 672.322 557.591 672.742 557.98 672.857L558.023 672.87L558.163 672.913C558.29 672.951 558.487 673.011 558.766 673.097C559.322 673.268 560.204 673.542 561.5 673.951C564.093 674.769 568.346 676.127 574.984 678.286C588.386 682.644 600.463 682.924 613.272 680.578C619.599 679.421 628.513 678.302 635.859 677.471C639.529 677.056 642.803 676.714 645.159 676.475C646.337 676.356 647.285 676.262 647.939 676.199C648.266 676.167 648.519 676.143 648.691 676.126L648.951 676.102C648.951 676.102 648.951 676.102 648.896 675.348C648.84 674.594 648.84 674.594 648.84 674.594L648.577 674.619C648.405 674.636 648.151 674.66 647.823 674.692C647.168 674.756 646.217 674.849 645.037 674.969C642.677 675.208 639.398 675.551 635.721 675.967C628.373 676.798 619.416 677.921 613.036 679.088C600.432 681.397 588.597 681.118 575.447 676.843C568.806 674.682 564.549 673.323 561.951 672.503C560.652 672.094 559.767 671.819 559.207 671.646C558.927 671.56 558.728 671.499 558.599 671.46L558.456 671.417L558.412 671.404L558.409 671.403C558.409 671.403 558.408 671.403 558.194 672.13L558.409 671.403C558.021 671.287 557.609 671.519 557.49 671.921ZM648.896 675.348L648.84 674.594C649.245 674.556 649.599 674.863 649.629 675.279C649.66 675.696 649.357 676.064 648.951 676.102L648.896 675.348Z" fill="#231005"/>
<path fill-rule="evenodd" clip-rule="evenodd" d="M600.492 658.995C600.113 658.847 599.685 659.041 599.535 659.43L600.222 659.699C599.535 659.43 599.536 659.43 599.535 659.43L599.534 659.434L599.531 659.441L599.521 659.469C599.512 659.492 599.499 659.526 599.483 659.57C599.451 659.658 599.405 659.787 599.349 659.95C599.236 660.277 599.082 660.746 598.913 661.32C598.577 662.466 598.179 664.042 597.943 665.752C597.707 667.455 597.625 669.329 597.945 671.053C598.266 672.783 599.003 674.416 600.447 675.542C600.769 675.793 601.232 675.727 601.481 675.395C601.73 675.063 601.671 674.591 601.349 674.34C600.277 673.504 599.672 672.253 599.394 670.757C599.116 669.256 599.179 667.564 599.403 665.947C599.626 664.336 600.003 662.838 600.326 661.739C600.487 661.191 600.634 660.744 600.74 660.437C600.793 660.283 600.835 660.164 600.864 660.085C600.879 660.045 600.89 660.015 600.897 659.995L600.906 659.974L600.907 659.969C601.057 659.581 600.871 659.144 600.492 658.995Z" fill="#231005"/>
<path fill-rule="evenodd" clip-rule="evenodd" d="M539.776 637.538C539.397 637.389 538.968 637.584 538.819 637.973L539.505 638.242C538.819 637.973 538.819 637.972 538.819 637.973L538.817 637.976L538.815 637.984L538.804 638.011C538.795 638.035 538.783 638.069 538.767 638.113C538.734 638.201 538.688 638.329 538.632 638.492C538.519 638.819 538.365 639.288 538.196 639.862C537.86 641.008 537.462 642.584 537.225 644.293C536.989 645.996 536.907 647.869 537.227 649.593C537.548 651.322 538.284 652.956 539.728 654.081C540.05 654.333 540.514 654.267 540.763 653.935C541.012 653.603 540.953 653.13 540.631 652.879C539.559 652.044 538.954 650.792 538.676 649.297C538.398 647.796 538.462 646.105 538.686 644.488C538.909 642.878 539.286 641.38 539.609 640.281C539.77 639.733 539.917 639.287 540.023 638.98C540.076 638.826 540.118 638.707 540.148 638.628C540.162 638.588 540.173 638.558 540.181 638.538L540.189 638.517L540.19 638.512C540.34 638.123 540.155 637.687 539.776 637.538Z" fill="#231005"/>
<path d="M520.089 554.839L518.045 597.55C517.97 598.982 518.208 600.4 518.697 601.704C520.091 605.326 522.249 608.205 525.222 610.314C526.454 611.173 527.95 611.646 529.536 611.72L577.015 614.195L580.172 622.452L525.957 620.32C523.513 620.223 521.257 619.298 519.621 617.684C515.351 613.491 512.06 608.994 510.101 604.065C509.627 602.842 509.475 601.489 509.537 600.127L511.901 554.417L520.078 554.869L520.089 554.839Z" fill="#85D6CA"/>
<path d="M498.531 559.048L496.622 601.48C496.536 603.597 496.99 605.64 498.009 607.422C500.732 612.244 504.689 616.666 509.437 620.835C511.33 622.498 513.893 623.382 516.584 623.334L580.234 622.047L526.461 619.913C523.942 619.82 521.606 618.861 519.915 617.176C515.151 612.443 511.632 607.368 509.897 601.837L512.349 554.247L498.531 559.048Z" fill="#AFE5DE"/>
<path fill-rule="evenodd" clip-rule="evenodd" d="M726.478 704.629L726.471 704.628L726.446 704.628C726.423 704.627 726.387 704.627 726.339 704.626C726.244 704.625 726.102 704.624 725.915 704.625C725.543 704.629 724.997 704.641 724.312 704.68C722.94 704.757 721.014 704.938 718.803 705.351C714.368 706.181 708.847 707.936 704.34 711.614C704.019 711.875 703.556 711.824 703.305 711.499C703.054 711.174 703.11 710.699 703.43 710.437C708.208 706.539 714 704.718 718.556 703.866C720.84 703.439 722.829 703.252 724.249 703.172C724.959 703.132 725.528 703.119 725.921 703.115C726.118 703.114 726.271 703.115 726.376 703.116C726.428 703.117 726.468 703.117 726.496 703.118L726.528 703.119L726.537 703.119L726.54 703.119C726.54 703.119 726.541 703.119 726.511 703.847L726.541 703.119C726.948 703.132 727.263 703.481 727.246 703.897C727.228 704.314 726.884 704.641 726.478 704.629C726.478 704.629 726.478 704.629 726.478 704.629Z" fill="#231005"/>
<path fill-rule="evenodd" clip-rule="evenodd" d="M771.637 740.049C771.233 740.016 770.874 740.327 770.835 740.743C770.835 740.743 770.835 740.743 770.835 740.744L771.567 740.804C770.835 740.744 770.835 740.743 770.835 740.743L770.835 740.743L770.835 740.744L770.834 740.754C770.833 740.764 770.831 740.781 770.828 740.805C770.823 740.851 770.813 740.924 770.799 741.02C770.771 741.212 770.723 741.5 770.646 741.869C770.491 742.607 770.219 743.67 769.751 744.943C768.814 747.489 767.095 750.875 763.966 754.205C763.682 754.508 763.686 754.987 763.976 755.275C764.266 755.563 764.732 755.551 765.016 755.248C768.311 751.742 770.13 748.166 771.126 745.46C771.623 744.107 771.915 742.97 772.084 742.166C772.168 741.764 772.221 741.445 772.254 741.223C772.27 741.112 772.281 741.026 772.288 740.965C772.292 740.935 772.295 740.911 772.296 740.894L772.299 740.874L772.299 740.867L772.299 740.865L772.299 740.864C772.299 740.864 772.299 740.864 771.567 740.804L772.299 740.864C772.338 740.447 772.041 740.082 771.637 740.049Z" fill="#231005"/>
<path fill-rule="evenodd" clip-rule="evenodd" d="M777.448 628.56C777.05 628.66 776.807 629.067 776.904 629.469L779.073 638.437C779.17 638.839 779.571 639.084 779.968 638.983C780.365 638.883 780.608 638.476 780.511 638.074L778.342 629.106C778.245 628.704 777.845 628.46 777.448 628.56Z" fill="#231005"/>
<path fill-rule="evenodd" clip-rule="evenodd" d="M814.115 795.108C813.95 795.491 814.118 795.935 814.491 796.099C825.374 800.895 835.264 795.914 842.309 789.921C845.841 786.916 848.701 783.623 850.677 781.085C851.665 779.815 852.434 778.732 852.958 777.964C853.219 777.58 853.42 777.275 853.555 777.064C853.623 776.959 853.674 776.878 853.71 776.822L853.75 776.758L853.76 776.741L853.763 776.736L853.764 776.734C853.764 776.734 853.764 776.734 853.148 776.342L853.764 776.734C853.981 776.379 853.879 775.914 853.535 775.695C853.191 775.477 852.736 775.587 852.519 775.942M852.519 775.942L852.517 775.946L852.508 775.959L852.473 776.016C852.441 776.067 852.393 776.143 852.328 776.243C852.199 776.443 852.006 776.737 851.753 777.11C851.245 777.855 850.495 778.912 849.529 780.153C847.595 782.637 844.805 785.846 841.375 788.764C834.494 794.619 825.209 799.172 815.087 794.711C814.714 794.547 814.279 794.724 814.115 795.108" fill="black"/>
<path d="M397.923 457.572C382.099 446.979 344.454 416.744 317.71 354.72C315.784 350.227 309.849 349.045 305.535 352.322L249.493 395.046C246.876 397.033 245.79 400.343 246.85 403.108C251.855 416.322 269.425 454.102 314.33 481.354C318.714 484.014 324.26 484.614 329.614 483.125L396.115 464.675C399.556 463.713 400.657 459.387 397.913 457.553L397.923 457.572Z" fill="#443D99"/>
<path d="M286.154 463.9C287.593 465.187 289.078 466.469 290.63 467.739C296.904 473.019 303.995 478.163 311.927 482.967C316.305 485.626 321.853 486.228 327.188 484.746L393.708 466.29C397.152 465.327 398.252 460.997 395.51 459.166C385.325 452.353 366.098 437.389 346.564 411.063C345.382 409.482 344.206 407.858 343.031 406.187C340.43 402.499 337.816 398.597 335.24 394.48C334.009 392.509 332.779 390.495 331.577 388.445C325.902 378.844 320.399 368.159 315.297 356.314C314.195 353.75 311.793 352.259 309.144 352.09C307.123 351.93 304.998 352.509 303.148 353.926L300.741 355.755L247.077 396.642C244.472 398.646 243.377 401.938 244.433 404.705C248.347 415.04 259.911 440.322 286.154 463.9Z" fill="#6F5CEC"/>
<path d="M390.975 457.111C375.865 446.942 339.904 417.923 314.332 358.459C312.481 354.167 306.821 353.015 302.727 356.149L249.257 397.021C246.766 398.916 245.729 402.094 246.736 404.753C251.518 417.431 268.308 453.66 311.204 479.813C315.388 482.359 320.693 482.959 325.797 481.538L389.258 463.923C392.559 463.018 393.608 458.87 390.975 457.111Z" fill="#9C8BF9"/>
<path d="M257.288 411.765C258.022 412.191 259.188 411.601 260.037 411.686C260.88 411.77 261.711 412.626 262.583 412.435C263.455 412.244 264.003 411.076 264.821 410.633C265.582 410.22 266.827 410.392 267.511 409.782C268.16 409.19 268.064 407.963 268.579 407.205C269.098 406.446 270.342 406.01 270.632 405.221C270.939 404.38 270.224 403.422 270.305 402.598C270.387 401.726 271.269 400.749 271.102 399.949C270.934 399.146 269.726 398.805 269.272 398.137C268.818 397.47 268.887 396.24 268.151 395.811C267.417 395.385 266.251 395.975 265.402 395.89C264.559 395.806 263.728 394.95 262.856 395.141C261.984 395.332 261.436 396.5 260.618 396.943C259.858 397.356 258.612 397.184 257.929 397.794C257.279 398.386 257.375 399.613 256.86 400.37C256.341 401.13 255.098 401.566 254.807 402.355C254.497 403.198 255.215 404.153 255.131 404.98C255.052 405.85 254.17 406.827 254.337 407.627C254.505 408.43 255.713 408.771 256.167 409.439C256.622 410.106 256.552 411.336 257.288 411.765Z" fill="#6F5CEC"/>
<path d="M611.174 643.948L611.252 644.102C611.622 644.795 611.997 645.398 612.31 645.886C612.799 646.62 613.16 647.058 613.16 647.058C613.444 647.427 613.725 647.755 614.053 648.077C616.306 650.346 619.41 651.712 622.78 652.089C630.403 652.969 638.115 651.708 645.302 649.401C645.332 649.408 645.349 649.399 645.369 649.388C645.914 649.203 646.44 649.024 646.988 648.837C665.374 642.489 679.881 629.74 679.881 629.74C681.283 628.193 682.676 627.048 684.06 626.36C684.696 626.016 685.342 625.795 685.996 625.681C686.871 625.49 687.75 625.493 688.63 625.736C689.35 625.892 690.08 626.213 690.789 626.678C690.789 626.678 690.232 638.971 693.008 654.032C693.162 654.909 693.327 655.8 693.518 656.7C695.049 664.042 697.396 671.884 700.979 679.204L701.065 679.374C701.246 679.736 701.447 680.084 701.636 680.461C701.663 680.514 701.704 680.554 701.722 680.632C704.171 685.32 708.808 692.66 712.729 695.09C724.361 702.297 747.764 713.152 784.581 703.851L793.656 700.914L827.099 690.085L842.511 685.085C842.31 683.884 842.09 682.696 841.837 681.527C841.608 680.365 841.363 679.211 841.086 678.098C831.843 639.402 804.221 624.952 802.848 624.256L802.785 624.223L779.538 626.978C775.781 615.061 757.918 591.112 745.445 576.948C738.281 568.779 726.524 567.74 717.846 568.305C713.047 568.617 708.228 569.64 703.587 571.307C699.678 572.726 692.1 574.961 680.773 576.108C655.607 578.68 649.155 586.889 649.155 586.889C649.155 586.889 643.039 594.301 620.427 616.827C611.125 626.101 609 633.577 609.752 639.139C609.759 639.289 609.77 639.456 609.793 639.596C609.916 640.403 610.108 641.169 610.353 641.886C610.574 642.616 610.857 643.317 611.174 643.948Z" fill="#A44303"/>
<path fill-rule="evenodd" clip-rule="evenodd" d="M689.258 611.978C689.258 611.978 689.258 611.978 689.258 611.978L689.258 611.979L689.255 611.985L689.246 612.009C689.238 612.031 689.225 612.064 689.208 612.108C689.174 612.196 689.122 612.327 689.054 612.496C688.918 612.832 688.716 613.319 688.454 613.913C687.93 615.101 687.167 616.714 686.212 618.416C685.257 620.121 684.117 621.899 682.842 623.426C681.562 624.959 680.181 626.197 678.75 626.874C678.379 627.049 678.212 627.499 678.378 627.878C678.543 628.258 678.978 628.423 679.349 628.247C681.054 627.44 682.602 626.02 683.952 624.402C685.308 622.778 686.5 620.912 687.484 619.158C688.469 617.401 689.254 615.741 689.793 614.521C690.062 613.91 690.27 613.408 690.412 613.058C690.483 612.883 690.537 612.745 690.573 612.651C690.592 612.604 690.605 612.568 690.615 612.543L690.626 612.514L690.629 612.506L690.63 612.504C690.63 612.504 690.63 612.503 689.944 612.24L690.63 612.503C690.777 612.111 690.589 611.676 690.21 611.531C689.831 611.386 689.405 611.586 689.258 611.978Z" fill="#231005"/>
<path fill-rule="evenodd" clip-rule="evenodd" d="M683.213 624.154C683.184 624.57 683.489 624.928 683.895 624.953C698.538 625.86 709.357 621.838 716.522 617.571C720.102 615.44 722.766 613.249 724.54 611.586C725.427 610.755 726.092 610.055 726.537 609.559C726.76 609.312 726.928 609.115 727.041 608.979C727.098 608.911 727.141 608.858 727.171 608.821L727.205 608.778L727.215 608.766L727.218 608.762L727.219 608.761C727.219 608.76 727.219 608.76 726.645 608.294L727.219 608.76C727.474 608.432 727.423 607.957 727.106 607.7C726.789 607.443 726.325 607.501 726.07 607.829L726.07 607.829C726.07 607.829 726.07 607.829 726.628 608.281L726.07 607.829" fill="#231005"/>
<path fill-rule="evenodd" clip-rule="evenodd" d="M650.208 583.749C649.787 583.851 649.325 584.026 649.022 584.361C648.743 584.669 648.757 585.147 649.053 585.429C649.349 585.711 649.815 585.69 650.094 585.382C650.092 585.384 650.093 585.383 650.097 585.381C650.118 585.367 650.232 585.291 650.527 585.22C650.844 585.143 651.277 585.092 651.81 585.088C652.873 585.078 654.259 585.253 655.755 585.697C658.75 586.587 662.098 588.53 664.196 592.111C664.405 592.467 664.857 592.578 665.206 592.359C665.555 592.14 665.669 591.675 665.461 591.319C663.124 587.331 659.421 585.207 656.182 584.245C654.561 583.763 653.034 583.565 651.817 583.576C651.21 583.582 650.661 583.639 650.208 583.749Z" fill="#231005"/>
<path d="M618.007 627.681C621.789 629.149 627.304 632.267 629.561 638.411C630.56 641.106 633.762 642.218 636.309 640.511C644.737 634.853 658.446 623.003 647.969 611.08C647.969 611.08 637.339 597.243 616.879 622.945C615.558 624.595 616.131 626.96 618.024 627.672L618.007 627.681Z" fill="#FCD164"/>
<path fill-rule="evenodd" clip-rule="evenodd" d="M709.646 620.96C709.564 621.37 709.82 621.766 710.219 621.845C712.377 622.275 714.91 621.969 717.443 621.317C719.988 620.662 722.599 619.64 724.938 618.576C727.28 617.512 729.367 616.398 730.867 615.55C731.618 615.126 732.223 614.769 732.642 614.516C732.851 614.39 733.013 614.29 733.124 614.221C733.179 614.187 733.222 614.161 733.251 614.142L733.284 614.122L733.295 614.115C733.295 614.114 733.296 614.114 732.913 613.474L733.296 614.114C733.644 613.893 733.754 613.428 733.542 613.074C733.331 612.721 732.877 612.613 732.53 612.834C732.53 612.834 732.53 612.834 732.53 612.834L732.521 612.84L732.491 612.858C732.464 612.875 732.424 612.9 732.371 612.933C732.265 612.999 732.108 613.095 731.904 613.218C731.496 613.464 730.904 613.815 730.167 614.231C728.692 615.063 726.645 616.156 724.353 617.198C722.058 618.242 719.533 619.227 717.1 619.853C714.654 620.483 712.366 620.732 710.516 620.363C710.118 620.284 709.728 620.551 709.646 620.96Z" fill="#231005"/>
<path fill-rule="evenodd" clip-rule="evenodd" d="M610.909 634.07C610.503 634.084 610.179 634.433 610.186 634.851C610.219 636.923 611.146 639.035 612.006 640.573C612.443 641.354 612.877 642.012 613.202 642.475C613.365 642.707 613.501 642.892 613.597 643.019C613.645 643.082 613.683 643.132 613.71 643.166L613.741 643.206L613.746 643.212C616.016 646.217 619.38 647.796 623.057 648.509C626.735 649.221 630.787 649.079 634.529 648.586C638.277 648.093 641.75 647.245 644.283 646.521C645.55 646.158 646.585 645.827 647.304 645.585C647.664 645.464 647.945 645.366 648.137 645.297C648.233 645.263 648.306 645.236 648.356 645.218L648.414 645.196L648.429 645.191L648.434 645.189C648.435 645.189 648.435 645.189 648.2 644.504L648.434 645.189C648.818 645.045 649.02 644.61 648.886 644.217C648.751 643.825 648.332 643.624 647.948 643.768L647.945 643.77L647.932 643.774L647.881 643.793C647.834 643.81 647.765 643.836 647.673 643.868C647.489 643.934 647.217 644.029 646.866 644.147C646.165 644.383 645.152 644.708 643.909 645.063C641.42 645.775 638.02 646.605 634.364 647.085C630.703 647.567 626.82 647.693 623.35 647.021C619.883 646.35 616.89 644.894 614.908 642.265L614.901 642.256L614.894 642.247L614.893 642.246L614.887 642.239L614.862 642.207C614.84 642.179 614.807 642.135 614.763 642.078C614.677 641.964 614.551 641.794 614.4 641.578C614.096 641.145 613.691 640.531 613.285 639.804C612.458 638.326 611.684 636.485 611.657 634.802C611.65 634.385 611.315 634.057 610.909 634.07Z" fill="#231005"/>
<path fill-rule="evenodd" clip-rule="evenodd" d="M691.589 628.274C691.18 628.265 690.841 628.594 690.832 629.007L691.574 629.021L692.315 629.036C692.323 628.623 691.999 628.282 691.589 628.274ZM691.574 629.021C692.315 629.036 692.315 629.036 692.315 629.036L692.314 629.045L692.314 629.075C692.314 629.101 692.313 629.142 692.312 629.195C692.311 629.302 692.31 629.463 692.309 629.674C692.308 630.095 692.311 630.716 692.327 631.513C692.358 633.107 692.44 635.4 692.642 638.193C693.046 643.782 693.931 651.358 695.85 659.323C699.702 675.307 707.654 692.588 723.969 698.787C724.352 698.933 724.545 699.364 724.4 699.751C724.256 700.137 723.828 700.333 723.445 700.187C706.398 693.71 698.284 675.758 694.409 659.678C692.465 651.611 691.572 643.948 691.164 638.305C690.959 635.482 690.877 633.162 690.845 631.545C690.829 630.737 690.826 630.105 690.827 629.673C690.827 629.458 690.828 629.292 690.83 629.18C690.83 629.124 690.831 629.081 690.832 629.052L690.832 629.019L690.832 629.008C690.832 629.007 690.832 629.007 691.574 629.021Z" fill="#231005"/>
<path fill-rule="evenodd" clip-rule="evenodd" d="M702.706 481.167C702.686 482.003 703.327 482.687 704.14 482.695L743.782 483.11C744.594 483.118 745.269 482.447 745.29 481.612C745.311 480.776 744.669 480.091 743.857 480.083L704.214 479.669C703.402 479.66 702.727 480.331 702.706 481.167Z" fill="#507F77"/>
<path fill-rule="evenodd" clip-rule="evenodd" d="M703.903 488.162C703.882 488.998 704.524 489.682 705.336 489.691L744.975 490.107C745.788 490.115 746.463 489.445 746.483 488.609C746.504 487.773 745.862 487.088 745.05 487.08L705.411 486.664C704.599 486.655 703.923 487.326 703.903 488.162Z" fill="#507F77"/>
<path fill-rule="evenodd" clip-rule="evenodd" d="M703.336 495.14C703.316 495.976 703.958 496.661 704.77 496.669L744.409 497.085C745.221 497.094 745.896 496.423 745.917 495.587C745.938 494.751 745.296 494.067 744.484 494.058L704.845 493.642C704.032 493.634 703.357 494.304 703.336 495.14Z" fill="#507F77"/>
<g style="mix-blend-mode:overlay" opacity="0.58">
<path d="M391.676 460.271L327.153 488.039L399.018 468.774L430.054 467.175C432.791 467.035 435.074 464.744 435.104 462.099C435.127 459.631 433.166 457.742 430.597 457.81L399.478 458.651L391.695 460.26L391.676 460.271Z" fill="black"/>
</g>
<path fill-rule="evenodd" clip-rule="evenodd" d="M461.927 411.141C461.927 411.141 461.927 411.141 461.927 411.141L486.125 411.904L486.124 411.905L491.644 412.09C495.458 412.218 498.084 415.093 497.92 418.608L494.458 493.896C494.458 493.897 494.458 493.898 494.458 493.899M494.458 493.899C494.266 497.876 490.621 501.404 486.327 501.47C486.327 501.47 486.327 501.47 486.327 501.47L458.055 501.885C454.13 501.944 451.341 499.077 451.43 495.495C451.43 495.495 451.43 495.496 451.43 495.495L453.443 418.849C453.443 418.848 453.443 418.847 453.443 418.847C453.562 414.692 457.454 411.007 461.927 411.141M495.81 410.06L497.341 409.232L462.055 408.119C456.096 407.94 450.67 412.804 450.5 418.803L450.5 418.806L448.486 495.46C448.35 500.907 452.64 504.99 458.056 504.909C458.056 504.909 458.056 504.909 458.056 504.909L486.328 504.493C492.04 504.406 497.125 499.742 497.399 494.002L497.399 493.999L500.861 418.71" fill="#507F77"/>
<path fill-rule="evenodd" clip-rule="evenodd" d="M415.088 489.841C414.274 489.834 413.601 490.504 413.585 491.337L413.056 519.129C413.04 519.962 413.687 520.643 414.501 520.649C415.315 520.656 415.988 519.986 416.004 519.153L416.533 491.361C416.549 490.528 415.902 489.848 415.088 489.841Z" fill="#507F77"/>
<path fill-rule="evenodd" clip-rule="evenodd" d="M415.185 382.309C414.435 381.995 413.571 382.368 413.255 383.141L408.565 394.624L408.013 422.576C407.996 423.41 408.642 424.091 409.456 424.097C410.269 424.103 410.942 423.432 410.959 422.597L411.499 395.224L415.971 384.277C416.286 383.504 415.934 382.623 415.185 382.309Z" fill="#507F77"/>
<path d="M302.892 436.668C302.076 436.471 301.29 436.196 300.518 435.845C282.855 427.834 287.432 385.499 298.502 358.666C299.031 357.393 299.571 356.135 300.117 354.94L302.521 353.113C304.364 351.699 306.489 351.119 308.507 351.279C307.081 353.959 305.644 356.994 304.233 360.415C291.913 390.269 291.597 424.924 303.61 430.354C304.484 430.761 305.416 431.001 306.375 431.096C315.38 416.595 324.076 401.533 330.9 387.595C332.1 389.643 333.328 391.655 334.548 393.605C328.613 405.461 321.571 417.739 314.384 429.438C323.049 425.561 333.32 415.614 342.335 405.318C343.512 406.986 344.686 408.607 345.862 410.189C331.476 426.441 319.409 435.383 309.731 436.914C302.836 447.865 295.992 458.103 290.018 466.801C288.468 465.533 286.99 464.25 285.553 462.965C291.1 454.85 297.035 445.936 302.892 436.668Z" fill="#C2BAF5"/>
<path d="M553.321 396.224C556.376 399.347 559.422 402.647 562.474 406.139C569.098 413.69 575.719 422.084 582.203 431.428C584.946 435.39 591.016 435.485 594.668 431.614L595.45 430.778C595.956 430.418 596.44 430.025 596.885 429.545L598.913 427.378L616.864 408.302L625.75 398.859C601.972 398.006 577.087 397.104 553.321 396.224Z" fill="black"/>
<path d="M504.758 335.308C522.465 342.728 565.521 365.204 603.655 420.121C606.408 424.087 612.525 424.203 616.195 420.294L663.983 369.513C666.217 367.146 666.691 363.786 665.107 361.3C657.666 349.476 633.166 316.246 583.445 297.91C578.599 296.123 572.953 296.517 567.92 298.85L505.226 328.154C501.974 329.675 501.688 334.023 504.758 335.308Z" fill="#D8A941"/>
<path d="M614.721 309.718C613.056 308.719 611.334 307.752 609.555 306.816C602.33 302.848 594.326 299.125 585.554 295.906C580.708 294.119 575.079 294.504 570.039 296.865L507.323 326.176C504.071 327.698 503.786 332.048 506.856 333.334C518.258 338.098 540.154 349.123 564.469 371.007C565.932 372.312 567.403 373.676 568.892 375.077C572.158 378.177 575.498 381.458 578.809 384.971C580.388 386.652 581.994 388.38 583.564 390.128C590.982 398.364 598.439 407.667 605.732 418.155C607.303 420.427 609.978 421.446 612.632 421.143C614.665 420.937 616.678 420.023 618.255 418.337L620.301 416.159L666.064 367.548C668.285 365.161 668.772 361.818 667.189 359.335C661.382 350.096 645.169 327.82 614.693 309.757L614.721 309.718Z" fill="#F1C453"/>
<path d="M511.723 334.494C528.646 341.623 569.796 363.234 606.281 415.906C608.913 419.725 614.768 419.829 618.245 416.107L663.804 367.542C665.923 365.277 666.376 362.062 664.872 359.686C657.745 348.342 634.308 316.477 586.798 298.814C582.151 297.092 576.767 297.455 571.977 299.7L512.162 327.658C509.059 329.099 508.779 333.274 511.732 334.513L511.723 334.494Z" fill="#FCD164"/>
<path d="M652.133 354.758C651.329 354.475 650.251 355.256 649.383 355.314C648.51 355.371 647.529 354.685 646.683 355.034C645.842 355.384 645.503 356.59 644.769 357.161C644.076 357.713 642.789 357.735 642.232 358.473C641.701 359.151 642.029 360.324 641.655 361.136C641.281 361.948 640.119 362.602 639.963 363.425C639.809 364.291 640.705 365.089 640.778 365.899C640.852 366.751 640.152 367.85 640.476 368.589C640.797 369.331 642.073 369.464 642.659 370.018C643.244 370.57 643.407 371.789 644.21 372.069C645.014 372.352 646.089 371.573 646.961 371.516C647.829 371.458 648.814 372.142 649.657 371.795C650.498 371.445 650.84 370.238 651.571 369.669C652.263 369.116 653.554 369.092 654.107 368.356C654.642 367.677 654.314 366.503 654.688 365.692C655.062 364.88 656.224 364.225 656.376 363.404C656.534 362.537 655.638 361.738 655.561 360.931C655.488 360.079 656.191 358.978 655.867 358.238C655.544 357.502 654.27 357.364 653.682 356.814C653.096 356.26 652.937 355.041 652.133 354.758Z" fill="#D8A941"/>
<path d="M602.76 338.498C603.618 338.539 604.461 338.68 605.306 338.883C624.597 343.536 627.961 385.367 621.879 413.285C621.586 414.612 621.286 415.918 620.956 417.174L618.892 419.369C617.297 421.066 615.272 422.005 613.205 422.2C614.13 419.363 615.014 416.16 615.786 412.592C622.575 381.499 616.359 347.88 603.237 344.734C602.28 344.504 601.298 344.415 600.313 344.509C593.973 360.15 588.067 376.263 583.81 390.976C582.214 389.196 580.602 387.472 579.013 385.8C582.762 373.272 587.527 360.132 592.568 347.55C584.585 352.829 576.109 364.279 568.967 375.843C567.461 374.431 565.982 373.073 564.495 371.742C575.92 353.462 586.387 342.676 595.833 339.488C600.71 327.674 605.671 316.541 610.047 307.068C611.854 308.027 613.574 309.013 615.27 309.992C611.219 318.828 606.92 328.503 602.768 338.514L602.76 338.498Z" fill="#FAEFCB"/>
<path d="M325.069 541.782C325.284 542.209 325.52 542.629 325.772 543.036C325.957 543.353 326.166 543.674 326.368 543.982C326.461 544.125 326.585 544.278 326.7 544.456C326.935 544.786 327.185 545.088 327.432 545.392C327.737 545.77 328.039 546.13 328.349 546.467C329.023 547.236 329.762 547.947 330.53 548.579C330.896 548.881 331.251 549.169 331.592 549.465C331.673 549.532 331.744 549.58 331.816 549.628C332.908 550.478 334.004 551.192 335.075 551.814C338.324 553.741 341.145 554.679 341.771 554.883C341.818 554.882 341.855 554.905 341.881 554.914L341.901 554.903L347.535 554.817L354.289 554.691L355.317 553.239L359.44 547.316C361.786 543.948 360.252 539.759 356.637 538.905C356.327 538.809 355.999 538.77 355.678 538.747L336.257 537.29L323.328 536.33C323.522 537.706 323.904 538.985 324.362 540.179C324.563 540.724 324.811 541.268 325.069 541.782Z" fill="black"/>
<path fill-rule="evenodd" clip-rule="evenodd" d="M326.879 552.595C327.026 553.129 327.568 553.433 328.09 553.273L415.753 526.484L678.317 528.871C678.859 528.875 679.308 528.428 679.321 527.871C679.334 527.314 678.905 526.858 678.364 526.853L415.505 524.464L327.557 551.34C327.035 551.499 326.732 552.061 326.879 552.595Z" fill="#507F77"/>
<path fill-rule="evenodd" clip-rule="evenodd" d="M578.855 555.412C578.866 555.969 579.315 556.405 579.856 556.385L634.606 554.386C635.148 554.366 635.578 553.899 635.567 553.342C635.556 552.785 635.108 552.35 634.566 552.369L579.816 554.368C579.274 554.388 578.844 554.855 578.855 555.412Z" fill="#507F77"/>
<path d="M357.675 517.75C338.336 532.644 291.224 574.367 248.801 654.519C245.724 660.311 239.097 662.437 235.221 658.819L184.481 611.673C182.115 609.48 181.683 605.487 183.41 601.916C191.723 584.909 218.929 535.956 273.185 497.157C278.489 493.373 284.584 492.011 289.985 493.29L357.311 509.074C360.797 509.903 361.028 515.175 357.675 517.75Z" fill="#8C3B66"/>
<path d="M182.625 610.879L233.364 658.024C237.25 661.661 243.877 659.535 246.945 653.725C249.015 649.815 251.087 645.995 253.19 642.286C255.767 637.693 258.328 633.26 260.9 628.993C270.215 613.426 279.563 599.615 288.66 587.448C290.041 585.576 291.415 583.775 292.748 581.992C319.502 547.188 343.408 526.536 355.806 516.982C359.159 514.407 358.933 509.136 355.464 508.298L288.128 492.496C282.736 491.232 276.632 492.578 271.337 496.378C269.03 498.043 266.766 499.699 264.546 501.402C260.897 504.18 257.363 507.002 253.986 509.85C249.061 513.968 244.403 518.154 240.038 522.358C235.873 526.343 231.947 530.351 228.251 534.344C227.397 535.259 226.572 536.139 225.765 537.052C225.041 537.854 224.326 538.632 223.611 539.452C220.39 543.034 217.375 546.611 214.564 550.123C213.48 551.467 212.43 552.792 211.391 554.088C209.891 556.001 208.433 557.914 207.068 559.777C206.861 560.065 206.645 560.334 206.456 560.608C196.377 574.278 189.303 586.318 184.813 594.755C183.616 597.002 182.582 599.009 181.75 600.711C181.7 600.847 181.613 601.003 181.554 601.121C179.79 604.712 180.259 608.686 182.608 610.888L182.625 610.879Z" fill="#FF9ECB"/>
<path d="M184.386 609.413L233.77 655.051C237.569 658.558 244.051 656.468 247.058 650.824C249.108 647.012 251.13 643.281 253.21 639.672C255.729 635.2 258.258 630.891 260.782 626.717C298.517 564.23 337.052 530.444 353.932 517.49C357.215 514.972 357.011 509.839 353.614 509.048L287.895 493.959C282.625 492.762 276.661 494.096 271.46 497.802C269.201 499.416 266.976 501.056 264.808 502.727C261.245 505.438 257.768 508.185 254.456 510.975C249.629 514.996 245.085 519.078 240.797 523.196C235.788 527.986 231.126 532.759 226.789 537.53C222.839 541.808 219.169 546.086 215.801 550.266C212.953 553.754 210.3 557.157 207.847 560.494C195.098 577.66 187.202 592.216 183.378 599.967C181.642 603.476 182.08 607.337 184.383 609.457L184.386 609.413Z" fill="#FFB8D9"/>
<path d="M185.374 592.993C186.187 593.158 187.053 593.336 187.902 593.481C220.597 599.551 258.414 592.302 264.286 578.835C264.728 577.837 264.978 576.838 265.075 575.813C245.75 568.463 225.497 561.792 207.688 557.929C209.073 556.052 210.514 554.145 212.02 552.223C228.494 555.904 246.359 561.706 263.2 567.997C257.29 557.011 238.945 545.472 224.25 537.56C224.95 536.747 225.663 535.969 226.409 535.154C227.219 534.238 228.045 533.356 228.901 532.439C255.046 546.496 269.258 559.452 271.399 571.124C279.202 574.165 286.676 577.251 293.575 580.173C292.234 581.96 290.842 583.778 289.477 585.643C283.616 583.15 277.477 580.66 271.2 578.182C270.96 579.066 270.664 579.922 270.289 580.774C261.653 600.628 215.432 605.189 186.077 599.733C184.777 599.486 183.55 599.241 182.304 598.964C183.14 597.256 184.16 595.253 185.374 592.993Z" fill="#F7D2E4"/>
<path d="M233.934 641.365C234.723 641.808 235.983 641.167 236.886 641.266C237.783 641.364 238.685 642.268 239.642 642.051C240.597 641.839 241.157 640.601 242.019 640.11C242.837 639.666 244.183 639.85 244.906 639.176C245.6 638.536 245.489 637.228 246.023 636.416C246.562 635.602 247.899 635.116 248.228 634.267C248.558 633.37 247.779 632.337 247.878 631.456C247.956 630.523 248.912 629.463 248.719 628.611C248.529 627.757 247.235 627.396 246.737 626.685C246.241 625.977 246.308 624.658 245.531 624.189C244.754 623.72 243.482 624.387 242.584 624.289C241.682 624.19 240.782 623.289 239.827 623.502C238.87 623.719 238.31 624.956 237.446 625.444C236.628 625.888 235.287 625.705 234.561 626.381C233.865 627.018 233.98 628.325 233.442 629.138C232.907 629.95 231.566 630.438 231.239 631.29C230.909 632.187 231.687 633.22 231.587 634.099C231.514 635.032 230.558 636.092 230.748 636.946C230.941 637.799 232.232 638.162 232.728 638.869C233.227 639.575 233.157 640.896 233.934 641.365Z" fill="#8C3B66"/>
<path fill-rule="evenodd" clip-rule="evenodd" d="M512.419 552.211C511.881 552.136 511.381 552.519 511.302 553.068L512.276 553.205L513.25 553.342C513.329 552.793 512.957 552.287 512.419 552.211ZM526.927 618.627C527.454 618.758 527.773 619.3 527.64 619.838C527.507 620.377 526.972 620.707 526.445 620.576L526.686 619.601C526.445 620.576 526.444 620.576 526.444 620.576L526.442 620.576L526.439 620.575L526.428 620.572L526.389 620.562C526.357 620.553 526.311 620.541 526.252 620.525C526.135 620.492 525.967 620.443 525.755 620.375C525.33 620.241 524.726 620.034 523.998 619.739C522.544 619.15 520.58 618.207 518.538 616.788C514.451 613.947 510.014 609.165 508.803 601.492C507.626 594.021 508.266 581.87 509.179 571.686C509.637 566.573 510.168 561.92 510.584 558.546C510.792 556.859 510.971 555.491 511.099 554.544C511.162 554.07 511.213 553.702 511.248 553.452C511.266 553.327 511.279 553.231 511.288 553.167L511.302 553.068C511.302 553.068 511.302 553.068 512.276 553.205C513.25 553.342 513.25 553.342 513.25 553.342L513.237 553.437C513.228 553.5 513.215 553.594 513.198 553.717C513.163 553.964 513.113 554.33 513.049 554.8C512.923 555.74 512.744 557.1 512.538 558.779C512.124 562.137 511.596 566.766 511.14 571.851C510.225 582.062 509.615 593.97 510.747 601.157C511.849 608.136 515.867 612.492 519.657 615.127C521.554 616.446 523.384 617.325 524.739 617.873C525.416 618.147 525.971 618.338 526.353 618.459C526.545 618.519 526.692 618.562 526.79 618.59C526.839 618.603 526.875 618.613 526.898 618.619L526.923 618.626L526.927 618.627Z" fill="#507F77"/>
<path d="M819.396 748.926L841.007 745.777C843.973 728.302 847.935 711.384 843.725 690.071C843.519 688.85 843.296 687.638 843.029 686.446C842.785 685.245 842.54 684.086 842.276 682.94L842.255 682.951C832.726 643.527 804.26 628.803 802.85 628.096L802.782 628.064C802.782 628.064 852.6 677.247 819.396 748.926Z" fill="black"/>
<path d="M204.368 639.177L206.628 635.23C208.342 632.233 211.444 630.158 214.845 629.709L219.315 629.133L215.451 627.332C212.515 625.963 210.673 623.148 210.548 619.885L210.402 615.583L208.147 619.531C206.429 622.531 203.328 624.606 199.927 625.054L195.455 625.627L199.32 627.432C202.26 628.798 204.099 631.616 204.224 634.879L204.368 639.177Z" fill="#FAEFCB"/>
<path d="M423.326 604.033L424.749 601.213C425.833 599.08 427.932 597.505 430.298 597.072L433.417 596.489L430.636 595.386C428.533 594.545 427.11 592.658 426.899 590.397L426.611 587.415L425.185 590.237C424.101 592.371 422.001 593.946 419.636 594.379L416.515 594.958L419.298 596.064C421.401 596.906 422.823 598.793 423.035 601.053L423.326 604.033Z" fill="#F6CFB0"/>
<path d="M599.752 294.26L601.175 291.439C602.262 289.304 604.359 287.731 606.724 287.298L609.845 286.718L607.062 285.613C604.959 284.771 603.536 282.884 603.325 280.624L603.039 277.645L601.611 280.464C600.529 282.6 598.427 284.172 596.062 284.605L592.943 285.188L595.726 286.294C597.829 287.135 599.25 289.019 599.461 291.279L599.752 294.26Z" fill="#FAEFCB"/>
<path d="M328.562 350.317L330.646 346.199C332.227 343.08 335.293 340.781 338.747 340.15L343.302 339.3L339.242 337.687C336.166 336.457 334.089 333.702 333.782 330.4L333.362 326.047L331.28 330.169C329.694 333.286 326.628 335.585 323.174 336.216L318.619 337.066L322.683 338.68C325.755 339.909 327.831 342.664 328.142 345.964L328.562 350.317Z" fill="#FCD164"/>
<mask id="mask1_958_115" style="mask-type:luminance" maskUnits="userSpaceOnUse" x="35" y="302" width="236" height="253">
<path d="M35.3537 384.413L185.689 302.936L270.916 472.615L120.58 554.092L35.3537 384.413Z" fill="white"/>
</mask>
<g mask="url(#mask1_958_115)">
<path d="M263.256 460.809C240.371 452.802 183.552 427.689 124.287 361.087C119.999 356.262 112.717 356.612 109.378 361.841L65.7454 429.954C63.7088 433.127 64.0189 437.411 66.4994 440.451C78.342 454.85 115.91 495.037 179.548 514.384C185.772 516.271 192.343 515.336 197.71 511.953L264.513 469.91C267.985 467.736 267.215 462.194 263.23 460.8L263.256 460.809Z" fill="#B24F24"/>
<path d="M64.1131 431.308L107.74 363.176C111.096 357.938 118.357 357.598 122.646 362.424C125.548 365.662 128.412 368.831 131.313 371.868C134.849 375.639 138.345 379.23 141.834 382.667C154.458 395.205 166.796 405.897 178.549 414.994C180.329 416.39 182.112 417.74 183.836 419.076C218.198 444.806 246.915 457.005 261.618 462.145C265.602 463.536 266.362 469.059 262.9 471.252L196.082 513.307C190.732 516.681 184.13 517.605 177.906 515.718C175.181 514.882 172.522 514.03 169.901 513.11C165.586 511.65 161.389 510.083 157.337 508.41C151.432 506.035 145.839 503.495 140.495 500.816C135.421 498.282 130.587 495.641 125.992 492.938C124.944 492.316 123.901 491.711 122.901 491.083C121.99 490.544 121.101 489.99 120.211 489.44C116.177 486.973 112.39 484.415 108.783 481.873C107.414 480.91 106.075 479.948 104.754 478.978C102.82 477.575 100.956 476.158 99.187 474.733C98.9103 474.524 98.6319 474.313 98.3848 474.112C85.3342 463.851 75.7029 454.096 69.4154 447.096C67.7459 445.236 66.2867 443.554 65.1134 442.099C65.0423 441.957 64.9228 441.865 64.8439 441.75C62.3307 438.705 62.0499 434.428 64.0696 431.264L64.1131 431.308Z" fill="#FF6600"/>
<path d="M67.0337 442.321C72.4739 448.859 83.4382 460.876 99.9407 473.76C103.13 476.259 106.509 478.785 110.145 481.29C111.8 482.438 113.494 483.612 115.254 484.77C117.273 486.103 119.368 487.442 121.519 488.746C122.315 489.26 123.125 489.743 123.956 490.234C128.188 492.798 132.601 495.284 137.269 497.699C138.544 498.379 139.868 499.056 141.197 499.707C142.148 500.18 143.116 500.644 144.113 501.113C148.452 503.213 152.987 505.207 157.713 507.093C161.672 508.726 165.793 510.247 170.014 511.666C172.578 512.569 175.199 513.395 177.844 514.21C180.477 515.009 183.193 515.29 185.821 515.103C188.593 514.904 191.306 514.15 193.778 512.924C194.413 512.622 195.022 512.268 195.62 511.901L260.89 471.181C264.267 469.058 263.51 463.688 259.617 462.339C244.61 457.121 214.72 444.438 179.145 417.208C177.154 415.683 175.139 414.119 173.123 412.493C163.14 404.529 152.761 395.431 142.195 385.039C138.786 381.717 135.334 378.215 131.861 374.568C129.026 371.609 126.203 368.53 123.375 365.387C119.161 360.702 112.051 361.005 108.786 366.081L66.2601 432.128C64.2918 435.197 64.5688 439.363 67.0337 442.321Z" fill="#FF8533"/>
<path d="M117.28 485.501C134.866 457.294 150.51 441.09 163.99 437.03C167.79 428.684 171.637 420.63 175.299 413.082C177.324 414.709 179.34 416.277 181.337 417.805C178.461 423.735 175.57 429.874 172.683 436.125C173.732 436.256 174.77 436.459 175.803 436.756C195.903 442.443 200.482 480.892 196.01 513.707C193.532 514.935 190.812 515.691 188.033 515.89C193.526 481.487 187.153 448.042 172.949 444.001C171.774 443.67 170.554 443.541 169.274 443.584C160.499 463.181 152.264 483.415 146.215 501.874C145.216 501.405 144.246 500.94 143.292 500.466C141.96 499.813 140.632 499.135 139.357 498.452C144.853 481.733 151.999 463.981 159.487 447.016C147.353 454.492 134.009 472.83 123.562 489.484C121.405 488.177 119.305 486.836 117.28 485.501Z" fill="#FF985F"/>
<path d="M228.256 474.883C228.084 475.849 229.128 476.622 229.344 477.487C229.56 478.353 228.99 479.692 229.499 480.418C230.009 481.147 231.417 480.943 232.18 481.445C232.905 481.921 233.152 483.239 234.062 483.505C234.916 483.754 236.139 482.891 237.107 482.925C238.071 482.958 238.992 483.868 239.917 483.679C240.902 483.457 241.631 482.188 242.499 481.741C243.415 481.286 244.778 481.529 245.515 480.863C246.254 480.192 246.206 478.836 246.72 477.973C247.24 477.111 248.551 476.423 248.723 475.457C248.897 474.493 247.852 473.717 247.635 472.852C247.423 471.985 247.994 470.648 247.481 469.921C246.97 469.192 245.564 469.399 244.804 468.895C244.074 468.418 243.827 467.1 242.917 466.834C242.063 466.585 240.84 467.448 239.873 467.417C238.908 467.381 237.987 466.472 237.064 466.664C236.079 466.885 235.348 468.151 234.482 468.602C233.564 469.053 232.201 468.81 231.466 469.479C230.729 470.146 230.775 471.507 230.259 472.366C229.739 473.228 228.43 473.919 228.256 474.883Z" fill="#B24F24"/>
<path d="M94.1241 370.983L99.2357 367.492C103.116 364.849 107.923 364.166 111.993 365.7L117.331 367.732L114.237 363.115C111.895 359.614 111.684 355.001 113.695 350.885L116.358 345.474L111.243 348.967C107.367 351.608 102.556 352.292 98.4898 350.757L93.1481 348.727L96.2456 353.342C98.5877 356.843 98.7988 361.455 96.7841 365.573L94.1241 370.983Z" fill="#FAEFCB"/>
</g>
</g>
</svg>
