<svg width="1355" height="915" viewBox="0 0 1355 915" fill="none" xmlns="http://www.w3.org/2000/svg">
<path d="M639.508 436C835.531 516.842 1122.09 599.301 1290.08 875.782" stroke="#FF9ECB" stroke-width="151"/>
<mask id="mask0_368_968" style="mask-type:luminance" maskUnits="userSpaceOnUse" x="0" y="0" width="670" height="514">
<path d="M669.578 0.820068H0V513.18H669.578V0.820068Z" fill="white"/>
</mask>
<g mask="url(#mask0_368_968)">
<path d="M5.26758 76.8815L111.642 26.6343C166.318 40.6004 220.223 76.444 273.55 128.336L169.275 184.324C127.429 131.767 71.7737 97.2532 5.26758 76.8815Z" fill="#50B18A"/>
<path d="M22.8389 75.1684L111.782 33.7244C157.461 44.6804 202.756 73.838 247.787 116.367L161.697 164.251C126.221 121.04 78.4589 91.2872 22.8389 75.1684Z" fill="#75C2A3"/>
<path d="M200.248 128.196C207.992 117.041 199.557 97.782 181.406 85.1806C163.255 72.5795 142.262 71.4079 134.518 82.5637C126.773 93.7192 135.209 112.978 153.36 125.579C171.51 138.18 192.503 139.352 200.248 128.196Z" fill="#50B18A"/>
<path d="M93.3877 40.4952C93.3877 40.4952 115.072 53.2888 136.389 38.9026L111.082 29.8716L93.3877 40.4952Z" fill="#50B18A"/>
<path d="M47.1662 88.2941C47.1662 88.2941 66.9778 70.7223 49.5815 60.1162L15.0332 76.1127L47.1662 88.2764V88.2941Z" fill="#50B18A"/>
<path d="M116.544 27.039L12.8994 73.4006C77.6378 95.7152 131.77 131.716 172.444 185.114L274.041 132.994C222.166 79.8764 169.731 42.633 116.526 27.0215L116.544 27.039Z" fill="black"/>
<path d="M268.3 117.118L265.99 118.361L166.055 171.986L164.008 173.088C122.179 120.549 66.506 86.0179 0 65.6635L8.6283 61.5854L56.7751 38.8511L106.392 15.4163C106.97 15.5563 107.565 15.7138 108.125 15.8888C134.097 22.7319 159.912 34.528 185.535 50.612C213.292 68.0087 240.857 90.4456 268.3 117.118Z" fill="#50B18A"/>
<path d="M17.5713 63.9496L106.515 22.5232C152.194 33.4792 197.488 62.637 242.52 105.166L156.429 153.05C120.953 109.839 73.1915 80.0858 17.5713 63.967V63.9496Z" fill="#75C2A3"/>
<path d="M195.009 116.999C202.754 105.843 194.318 86.5847 176.167 73.9836C158.017 61.3822 137.024 60.2106 129.279 71.3664C121.534 82.5222 129.97 101.781 148.121 114.382C166.272 126.983 187.265 128.155 195.009 116.999Z" fill="#50B18A"/>
<path d="M88.1201 29.277C88.1201 29.277 109.805 42.0708 131.122 27.6844L105.814 18.6536L88.1201 29.277Z" fill="#50B18A"/>
<path d="M41.8995 77.0757C41.8995 77.0757 61.7115 59.5043 44.3148 48.8982L9.7666 64.8947L41.8995 77.0583V77.0757Z" fill="#50B18A"/>
<g style="mix-blend-mode:multiply">
<path d="M268.264 120.653L166.668 172.772C166.475 172.51 166.247 172.247 166.072 171.985C133.362 129.298 91.9881 97.7956 43.4385 75.5686C33.6902 71.0881 23.6443 67.0103 13.3359 63.2649C11.7607 62.7049 10.2206 62.1448 8.62793 61.6021L56.7747 38.8675L108.125 15.9055L110.767 14.7153C135.847 22.0835 160.77 34.247 185.534 50.6288C212.539 68.4803 239.352 91.3198 265.989 118.377C266.742 119.148 267.494 119.9 268.264 120.67V120.653Z" fill="black"/>
</g>
<path d="M267.914 126.795L264.098 128.37L194.057 157.231L158.494 171.88C122.213 115.349 70.338 75.3407 6.22949 48.318L18.3406 44.0477L117.19 9.16699C143.477 18.8104 169.012 33.8093 193.899 53.4461C219.207 73.3805 243.849 98.0576 267.914 126.813V126.795Z" fill="#50B18A"/>
<path d="M23.9053 48.4045L116.594 16.219C160.925 31.7604 203.017 65.3811 243.498 112.268L152.98 151.156C122.072 104.55 77.5826 70.1066 23.9053 48.4045Z" fill="#75C2A3"/>
<path d="M195.012 119.225C203.851 108.915 197.419 88.8978 180.644 74.5153C163.87 60.1328 143.106 56.8312 134.266 67.1409C125.426 77.4506 131.859 97.4678 148.633 111.85C165.408 126.233 186.172 129.535 195.012 119.225Z" fill="#50B18A"/>
<path d="M97.6055 21.0871C97.6055 21.0871 117.89 36.0162 140.554 23.8699L116.297 12.3188L97.6228 21.0871H97.6055Z" fill="#50B18A"/>
<path d="M46.7623 63.9292C46.7623 63.9292 68.2542 48.4577 52.0301 36.1541L16.0293 48.5626L46.7623 63.9292Z" fill="#50B18A"/>
<g style="mix-blend-mode:multiply">
<path d="M265.605 130.279L194.058 157.231L158.74 170.533C158.582 170.253 158.407 169.973 158.215 169.675C131.07 124.363 94.3513 88.8177 49.7572 61.4274C48.9345 60.9202 48.1469 60.4299 47.3418 59.9574C44.314 58.1199 41.234 56.3344 38.1185 54.5844C34.0407 52.2566 29.8753 49.999 25.6749 47.7938C24.6948 47.2862 23.6797 46.7786 22.6646 46.271C21.4045 45.606 20.1094 44.9761 18.8318 44.3111C18.6567 44.2236 18.4992 44.136 18.3242 44.0658L117.191 9.16772C143.478 18.8111 169.013 33.81 193.9 53.4469C217.825 73.8537 241.015 98.8634 263.627 127.741C263.784 127.951 263.942 128.179 264.117 128.371C264.624 129.001 265.097 129.631 265.622 130.279H265.605Z" fill="black"/>
</g>
<path d="M20.8447 24.7623L136.04 0.820068C185.92 27.195 229.937 74.6767 269.648 137.595L155.17 167.611C126.782 106.722 80.7527 60.1332 20.8447 24.7623Z" fill="#50B18A"/>
<path d="M38.3457 27.2145L134.5 7.75269C176.346 29.0871 213.554 68.0632 247.385 119.938L152.474 146.331C128.094 96.0132 88.628 55.917 38.3457 27.2145Z" fill="#75C2A3"/>
<path d="M198.421 120.303C208.562 111.27 204.87 90.5719 190.173 74.0715C175.477 57.5711 155.343 51.517 145.201 60.5495C135.06 69.582 138.752 90.2802 153.449 106.781C168.145 123.281 188.279 129.335 198.421 120.303Z" fill="#50B18A"/>
<path d="M115.038 10.0264C115.038 10.0264 133.135 27.5456 157.217 18.5497L134.727 3.84839L115.038 10.0264Z" fill="#50B18A"/>
<path d="M58.9276 45.6605C58.9276 45.6605 82.2924 33.217 67.8708 18.8481L30.54 26.3213L58.9276 45.6783V45.6605Z" fill="#50B18A"/>
<path d="M564.129 315.168C558.214 292.731 541.115 249.817 492.774 225.28C492.774 225.28 479.264 216.477 474.065 213.169C468.852 209.861 456.862 208.111 447.796 207.376C438.73 206.675 422.523 198.205 406.667 185.936C390.847 173.685 338.29 137.177 326.37 142.497C326.37 142.497 319.054 145.017 315.361 152.561C313.331 156.743 312.386 162.466 314.469 170.167L197.033 210.981L182.402 216.074C182.402 216.074 142.183 223.6 167.35 247.559C167.35 247.559 171.026 251.41 175.943 256.047C181.632 261.456 188.965 267.896 194.058 270.626C194.058 270.626 187.215 280.392 191.223 295.881C195.213 311.353 197.068 317.671 197.068 317.671C197.068 317.671 201.321 334.892 224.458 330.762C224.458 330.762 209.214 346.792 218.7 363.246C228.203 379.731 267.687 383.406 267.687 383.406C267.687 383.406 259.444 400.997 270.995 410.848C282.563 420.739 290.702 422.627 305.403 424.763C320.104 426.915 354.724 439.657 354.724 439.657C354.724 439.657 370.857 447.934 391.372 443.596C391.372 443.596 462.532 473.294 498.392 457.247C498.392 457.247 517.279 464.649 535.758 462.393C535.758 462.393 550.705 478.002 576.135 477.828L607.48 487.402L649.468 366.745C649.468 366.745 570.064 337.622 564.129 315.168ZM411.689 247.839L405.337 248.417L391.913 249.624L374.025 230.583L380.291 229.253C380.291 229.253 385.912 231.475 392.475 234.713C400.033 238.406 408.819 243.394 411.689 247.822V247.839Z" fill="#A44303"/>
<path d="M491.304 364.453L400.454 409.729C390.042 414.928 377.457 412.512 369.688 403.868L197.033 210.998L314.469 170.184C312.386 162.484 313.314 156.761 315.362 152.578L392.458 234.73C385.895 231.492 380.274 229.27 380.274 229.27L374.008 230.6L391.896 249.642L405.32 248.434L494.946 343.942C500.915 350.294 499.077 360.583 491.287 364.469L491.304 364.453Z" fill="black"/>
<path d="M232.142 100.773L122.04 130.421C116.002 132.048 113.796 139.451 117.979 144.107L350.173 403.463C357.925 412.128 370.51 414.541 380.923 409.344L471.776 364.048C479.562 360.165 481.416 349.873 475.451 343.52L253.197 106.759C247.824 101.035 239.72 98.7252 232.142 100.773Z" fill="#62998F"/>
<path d="M126.537 122.298C126.537 122.298 118.941 123.594 116.106 135.442C115.598 137.56 115.651 139.835 116.526 141.83C116.858 142.6 117.331 143.388 117.979 144.105L126.502 139.17L126.555 122.298H126.537Z" fill="#62998F"/>
<path d="M481.713 342.732C481.713 342.732 485.459 349.455 478.037 359.116C476.707 360.847 474.906 362.231 472.804 362.809C471.999 363.036 471.09 363.156 470.111 363.106L468.604 353.375L481.713 342.732Z" fill="#62998F"/>
<path d="M236.64 92.6511L126.538 122.299C120.5 123.926 118.294 131.33 122.477 135.985L354.67 395.343C362.426 404.005 375.007 406.421 385.42 401.221L476.273 355.928C484.059 352.042 485.917 341.753 479.949 335.397L257.695 98.6367C252.322 92.9138 244.218 90.6034 236.64 92.6511Z" fill="#68DACB"/>
<path d="M473.577 341.789C472.474 344.342 470.516 346.548 467.766 347.931L381.538 390.932C371.65 395.851 359.713 393.575 352.345 385.351L131.928 139.137C130.703 137.789 130.073 136.179 129.933 134.551C129.618 130.911 131.823 127.218 135.796 126.151L240.316 98.0081C247.509 96.0656 255.192 98.253 260.285 103.696L471.231 328.434C474.767 332.197 475.415 337.482 473.56 341.789H473.577Z" fill="black"/>
<path d="M473.576 341.786C472.473 344.343 470.512 346.548 467.765 347.928L381.533 390.932C371.645 395.848 359.709 393.575 352.341 385.348L131.927 139.135C130.702 137.788 130.072 136.178 129.932 134.55C130.212 134.042 130.544 133.57 130.947 133.15C131.909 132.047 133.222 131.225 134.78 130.787L199.151 113.46L239.299 102.644C246.51 100.702 254.193 102.907 259.286 108.333L430.225 290.454L469.479 332.283L470.214 333.071C472.544 335.557 473.609 338.688 473.559 341.77L473.576 341.786Z" fill="#DCD7F9"/>
<path d="M184.608 178.741L290.563 299.187C293.906 302.985 299.366 304.123 303.952 301.953L378.701 266.529C382.798 264.587 383.864 259.249 380.819 255.871L280.517 144.981C277.349 141.463 272.379 140.185 267.898 141.69L187.216 168.958C183.103 170.34 181.72 175.469 184.591 178.741H184.608Z" fill="#6F5CEC"/>
<path d="M373.748 264.149L356.124 272.515L346.533 277.048L302.901 297.734C298.561 299.8 293.38 298.715 290.212 295.109L249.819 249.202L244.393 243.024L189.788 180.963C187.075 177.866 188.388 173 192.273 171.705L268.755 145.855C273.008 144.42 277.699 145.645 280.691 148.971L339.653 214.147L345.166 220.255L360.324 237.021L367.288 244.705L375.759 254.085C378.646 257.288 377.634 262.346 373.748 264.184V264.149Z" fill="#9C8BF9"/>
<path d="M306.699 287.41C307.136 286.763 306.681 285.747 306.821 285.013C306.961 284.278 307.784 283.542 307.661 282.772C307.539 282.002 306.541 281.565 306.191 280.865C305.859 280.2 306.121 279.115 305.596 278.537C305.106 277.995 304.003 278.099 303.356 277.662C302.708 277.224 302.393 276.157 301.711 275.912C300.975 275.649 300.065 276.297 299.33 276.244C298.56 276.192 297.738 275.439 297.02 275.614C296.303 275.789 295.883 276.839 295.27 277.242C294.657 277.644 293.537 277.61 293.1 278.257C292.662 278.904 293.117 279.92 292.977 280.655C292.837 281.39 292.015 282.125 292.137 282.895C292.26 283.665 293.257 284.102 293.607 284.802C293.94 285.467 293.677 286.553 294.203 287.13C294.692 287.673 295.795 287.568 296.443 288.005C297.09 288.443 297.405 289.511 298.088 289.755C298.823 290.018 299.733 289.371 300.468 289.423C301.238 289.475 302.061 290.228 302.778 290.053C303.496 289.878 303.916 288.828 304.528 288.426C305.141 288.023 306.261 288.058 306.699 287.41Z" fill="#6F5CEC"/>
<path d="M345.166 220.221C339.81 220.957 334.507 221.902 329.257 223.197C323.202 224.667 316.621 226.33 311.266 229.637C309.498 230.757 307.695 232.245 306.89 234.223C306.575 235.01 306.435 235.815 306.453 236.621C311.948 236.27 317.444 236.025 322.939 235.833C335.419 235.43 347.913 235.605 360.324 236.97L367.288 244.654C348.09 241.696 328.26 242.151 309.026 243.359C311.808 247.594 315.816 251.217 319.562 254.489C323.727 258.06 328.295 261.158 333.055 263.818C340.248 267.808 348.037 270.766 356.124 272.499L346.533 277.032C337.009 274.039 327.945 269.471 319.964 263.538C315.099 259.88 310.566 255.82 306.541 251.252C304.65 249.064 302.778 246.579 301.448 243.884C284.786 245.091 268.194 246.876 251.62 248.977C251.008 249.029 250.43 249.099 249.818 249.187C249.748 249.187 249.695 249.204 249.625 249.222C247.875 247.121 246.107 245.074 244.287 243.026C244.322 243.026 244.357 243.026 244.392 243.008C245.022 242.921 245.652 242.816 246.282 242.764C263.976 240.453 281.758 238.423 299.557 237.093C299.505 235.518 299.715 233.873 300.327 232.28C302.41 226.539 307.888 223.179 313.296 221.061C320.577 218.174 328.26 216.179 335.977 214.761C337.203 214.551 338.43 214.323 339.653 214.131L345.166 220.239V220.221Z" fill="#C2BAF5"/>
<path opacity="0.4" d="M194.812 135.705L223.322 169.203C224.879 171.041 224.162 173.859 221.904 174.716L214.641 177.482C212.611 178.252 212.751 181.174 214.851 181.752L262.98 194.843C265.763 195.596 268.546 193.583 268.668 190.695L270.033 161.293C270.138 158.947 267.811 157.25 265.606 158.09L259.375 160.47C257.537 161.17 255.455 160.645 254.177 159.157L226.559 127.112L194.829 135.723L194.812 135.705Z" fill="#E8E8FC"/>
<path d="M218.736 256.657C218.736 256.657 235.17 251.932 242.153 250.199C249.137 248.467 265.518 254.277 266.831 268.944C266.831 268.944 268.213 286.498 253.915 295.966L218.719 256.657H218.736Z" fill="#A44303"/>
<path d="M258.973 301.621C258.973 301.621 276.789 294.253 288.06 295.653C299.332 297.053 317.463 290.14 317.463 290.14C317.463 290.14 329.644 285.869 335.228 296.125C340.809 306.399 342.403 328.136 318.548 334.821C318.548 334.821 299.244 341.228 295.324 342.207L258.99 301.621H258.973Z" fill="#A44303"/>
<path d="M305.633 353.723C305.633 353.723 359.118 342.257 368.726 348.663C378.333 355.069 376.829 369.545 367.66 378.909C358.487 388.272 347.81 394.15 342.631 395.042L305.633 353.723Z" fill="#A44303"/>
<path d="M182.403 216.089C182.403 216.089 213.276 228.691 215.201 252.738L182.403 216.089Z" fill="#A44303"/>
<path d="M206.976 308.272C206.976 308.272 242.101 313.032 253.915 295.968" stroke="#231005" stroke-width="2.62524" stroke-miterlimit="10" stroke-linecap="round"/>
<path d="M226.803 320.733C226.803 320.733 240.191 312.455 242.747 304.597" stroke="#231005" stroke-width="2.62524" stroke-miterlimit="10" stroke-linecap="round"/>
<path d="M283.299 347.721C291.192 345.338 295.322 342.207 295.322 342.207" stroke="#231005" stroke-width="2.62524" stroke-miterlimit="10" stroke-linecap="round"/>
<path d="M258.971 301.622C258.971 301.622 250.483 305.402 239.527 316.323C228.571 327.245 224.458 330.727 224.458 330.727" stroke="#231005" stroke-width="2.62524" stroke-miterlimit="10" stroke-linecap="round"/>
<path d="M267.653 383.39C267.653 383.39 273.289 374.287 283.317 370.979C283.317 370.979 290.598 366.361 293.521 362.351C296.443 358.344 301.221 352.78 305.614 353.743" stroke="#231005" stroke-width="2.62524" stroke-miterlimit="10" stroke-linecap="round"/>
<path d="M194.041 270.624C194.041 270.624 199.327 263.291 206.782 261.104C214.238 258.933 218.718 256.658 218.718 256.658" stroke="#231005" stroke-width="2.62524" stroke-miterlimit="10" stroke-linecap="round"/>
<path d="M312.544 399.593C312.544 399.593 330.535 400.609 342.61 395.042" stroke="#231005" stroke-width="2.62524" stroke-miterlimit="10" stroke-linecap="round"/>
<path d="M305.088 415.206C305.088 415.206 318.354 411.426 326.755 399.072" stroke="#231005" stroke-width="2.62524" stroke-miterlimit="10" stroke-linecap="round"/>
<path d="M352.886 418.882V406.09" stroke="#231005" stroke-width="2.62524" stroke-miterlimit="10" stroke-linecap="round"/>
<path d="M409.694 396.883C409.694 396.883 411.586 408.94 411.673 420.211" stroke="#231005" stroke-width="2.62524" stroke-miterlimit="10" stroke-linecap="round"/>
<path d="M389.972 181.944C389.972 181.944 370.597 203.611 369.478 211.206" stroke="#231005" stroke-width="2.62524" stroke-miterlimit="10" stroke-linecap="round"/>
<path d="M424.187 215.389C424.187 215.389 411.672 226.24 408.033 236.146" stroke="#231005" stroke-width="2.62524" stroke-miterlimit="10" stroke-linecap="round"/>
<path d="M446.396 233.608C449.931 229.6 458.212 227.045 458.212 227.045" stroke="#231005" stroke-width="2.62524" stroke-miterlimit="10" stroke-linecap="round"/>
<path d="M497.012 335.925C497.012 335.925 529.476 335.086 542.077 329.782" stroke="#231005" stroke-width="2.62524" stroke-miterlimit="10" stroke-linecap="round"/>
<path d="M256.118 370.822C256.118 370.822 268.124 368.406 271.992 358.047C271.992 358.047 274.285 352.479 276.98 351.397" stroke="#231005" stroke-width="2.62524" stroke-miterlimit="10" stroke-linecap="round"/>
<path d="M255.63 312.926C255.63 312.926 256.662 323.917 265.623 329.203" stroke="#231005" stroke-width="2.62524" stroke-miterlimit="10" stroke-linecap="round"/>
<path d="M297.336 365.572C297.336 365.572 299.769 380.57 306.402 383.878" stroke="#231005" stroke-width="2.62524" stroke-miterlimit="10" stroke-linecap="round"/>
<path d="M192.536 280.603C192.536 280.603 195.581 293.607 199.379 297.142" stroke="#231005" stroke-width="2.62524" stroke-miterlimit="10" stroke-linecap="round"/>
<path d="M321.049 298.365C321.206 296.37 319.386 294.795 317.426 295.127C310.268 296.352 297.212 298.89 295.024 301.515C291.594 305.663 291.296 321.975 318.651 320.942L323.184 320.329C326.072 319.927 327.577 316.706 326.072 314.204C323.517 309.968 320.594 303.825 321.049 298.347V298.365Z" fill="#FBF4DE"/>
<path d="M247.35 260.842C247.35 264.307 248.19 269.61 252.338 275.088C253.878 277.118 253.441 280.024 251.253 281.336C244.778 285.239 231.809 290.455 221.343 278.186C221.343 278.186 215.322 263.31 243.412 257.621C245.46 257.201 247.333 258.777 247.333 260.859L247.35 260.842Z" fill="#FBF4DE"/>
<path d="M361.043 353.111C361.287 351.377 360.011 349.803 358.243 349.803C351.118 349.856 336.766 350.782 336.819 357.469C336.906 366.377 348.582 373.729 359.643 372.519L361.568 372.309C363.964 372.048 365.401 369.508 364.368 367.34C362.53 363.42 360.358 357.626 361.006 353.094L361.043 353.111Z" fill="#FBF4DE"/>
<path d="M215.219 252.737L215.569 258.058" stroke="#231005" stroke-width="2.62524" stroke-miterlimit="10" stroke-linecap="round"/>
<path d="M411.692 247.838C411.692 247.838 423.224 245.195 430.593 251.356" stroke="#231005" stroke-width="2.62524" stroke-miterlimit="10" stroke-linecap="round"/>
<path d="M633.104 488.361C626.19 523.018 623.476 511.238 623.476 511.238L594.514 501.367L591.854 500.458C581.318 498.951 573.739 496.956 568.349 494.767C550.461 487.559 556.062 478.403 556.062 478.403C556.062 478.403 558.391 475.008 562.241 468.218C564.794 463.72 567.998 457.752 571.604 450.313C576.155 440.863 581.388 429.033 586.778 414.821C590.224 405.772 593.726 395.744 597.174 384.753C601.234 371.821 605.696 362.895 610.23 356.874C622.026 341.228 634.347 345.165 641.05 349.332C644.235 351.29 646.16 353.321 646.16 353.321L659.533 361.231L669.595 367.163C669.595 367.163 661.194 379.467 652.392 404.021C650.694 408.783 648.96 414.016 647.262 419.704C645.932 424.148 644.656 428.91 643.413 433.932C642.207 438.814 641.034 443.997 639.964 449.421C639.055 453.955 638.213 458.681 637.445 463.6C636.953 466.677 636.482 469.564 636.044 472.278C634.995 478.51 634.013 483.83 633.121 488.345L633.104 488.361Z" fill="#FF6600"/>
<path d="M629.672 408.275C621.709 409.328 615.253 409.361 607.641 407.82C607.48 407.75 606.695 407.54 606.204 407.453C606.17 407.419 606.1 407.453 606.08 407.419H606.03C605.485 407.262 604.961 407.139 604.453 406.965C603.28 406.597 602.127 406.193 600.987 405.755C600.342 405.495 599.711 405.214 599.116 404.97C598.992 404.97 598.905 404.917 598.872 404.88H598.782C597.612 404.235 596.419 403.62 595.266 402.955C595.527 403.009 594.722 402.377 594.652 402.447C594.478 402.22 594.284 401.889 594.164 401.695L594.127 401.662C594.093 401.381 593.743 400.402 593.709 400.225C593.709 400.225 593.569 399.002 593.515 398.668C593.515 395.169 595.019 391.791 596.667 388.673C599.694 383.142 604.75 377.438 610.09 374.167C621.502 367.183 637.147 363.998 651.707 362.16C654.263 361.826 656.87 361.512 659.48 361.248L646.106 353.338C646.106 353.338 644.182 351.326 640.997 349.348C633.034 350.484 625.211 352.008 617.826 354.25C615.183 355.036 612.626 355.911 610.177 356.89C605.642 362.912 601.181 371.838 597.121 384.773C593.672 395.78 590.174 405.792 586.725 414.838C588.563 415.837 590.558 416.783 592.64 417.622C609.372 424.606 628.239 423.329 645.074 420.141C645.776 420.001 646.494 419.881 647.209 419.703C648.89 414.016 650.624 408.783 652.339 404.024C644.9 405.826 637.358 407.313 629.655 408.295L629.672 408.275ZM643.396 433.932C636.569 435.369 629.726 436.786 622.919 438.256C605.696 441.932 588.423 445.852 571.584 450.333C567.982 457.772 564.777 463.74 562.221 468.238C578.358 463.459 594.986 459.382 611.61 455.599C621.011 453.464 630.477 451.453 639.964 449.441C641.034 444.014 642.187 438.834 643.413 433.952L643.396 433.932ZM636.028 472.298C612.539 478.336 590.591 486.894 568.329 494.787C573.719 496.956 581.298 498.971 591.834 500.475L594.494 501.384C603.754 498.025 613.011 494.734 622.427 491.706C625.929 490.57 629.482 489.484 633.104 488.381C634.013 483.867 634.975 478.547 636.028 472.314V472.298Z" fill="#FBC333"/>
</g>
</svg>
