<svg width="903" height="946" viewBox="0 0 903 946" fill="none" xmlns="http://www.w3.org/2000/svg">
<path d="M865.156 615.421C865.156 615.421 868.862 621.784 862.1 630.39C860.894 631.934 859.234 633.133 857.271 633.598C856.517 633.781 855.669 633.851 854.749 633.762L853.089 624.726L865.156 615.421Z" fill="#62998F"/>
<path d="M358.452 431.5L73.4521 237" stroke="#F1C453" stroke-width="151"/>
<path d="M473.062 407.974C492.236 400.205 532.33 389.574 578.201 411.555C578.201 411.555 592.368 416.658 597.761 418.653C603.17 420.663 611.529 428.457 617.431 434.665C623.308 440.877 638.862 448.12 656.853 453.068C674.815 457.993 731.539 476.607 734.925 488.145C734.925 488.145 737.522 494.837 734.441 501.579C732.746 505.316 729.299 509.081 722.683 511.698L764.071 619.122L769.225 632.498C769.225 632.498 787.897 665.798 756.225 660.394C756.225 660.394 751.344 659.796 745.199 658.706C738.05 657.472 729.199 655.612 724.26 653.362C724.26 653.362 721.514 663.594 708.339 669.004C695.177 674.42 689.655 676.455 689.655 676.455C689.655 676.455 675.107 682.618 664.236 663.557C664.236 663.557 662.11 683.267 644.99 685.217C627.834 687.188 601.781 660.419 601.781 660.419C601.781 660.419 594.403 675.88 580.668 672.768C566.901 669.68 560.727 664.765 550.503 655.2C540.247 645.659 510.78 627.309 510.78 627.309C510.78 627.309 495.424 620.021 486.226 602.759C486.226 602.759 423.182 566.941 413.043 532.2C413.043 532.2 396.639 522.435 387.244 507.773C387.244 507.773 367.457 505.288 352.458 486.693L327.129 469.027L386.32 373.572C386.32 373.572 453.867 415.709 473.056 407.95L473.062 407.974ZM610.706 482.709L614.088 487.65L621.235 498.072L645.149 500.852L642.348 495.566C642.348 495.566 637.445 492.67 631.294 489.65C624.218 486.12 615.512 482.433 610.706 482.709Z" fill="#8C3A03"/>
<path d="M480.811 486.074L503.339 576.866C505.915 587.287 515.124 595.169 525.815 596.164L763.944 618.167L722.407 510.363C729.032 507.727 732.492 503.949 734.209 500.209L630.653 488.235C636.842 491.276 641.745 494.17 641.745 494.17L644.557 499.475L620.553 496.684L613.38 486.225L493.014 472.305C485.004 471.361 478.905 478.282 480.82 486.06L480.811 486.074Z" fill="black"/>
<path d="M819.074 531.803L863.971 628.102C866.428 633.388 862.548 638.983 856.829 638.452L537.07 608.897C526.396 607.903 517.201 600.038 514.616 589.643L492.13 498.963C490.199 491.184 496.308 484.285 504.287 485.215L802.297 519.686C809.506 520.523 815.936 525.187 819.038 531.824L819.074 531.803Z" fill="#62998F"/>
<path d="M503.858 484.322C503.858 484.322 496.752 485.221 494.383 496.016C493.967 497.95 494.058 500.041 494.939 501.928C495.265 502.651 495.729 503.394 496.366 504.092L504.233 499.874L503.858 484.322Z" fill="#62998F"/>
<path d="M822.382 523.949L867.28 620.248C869.736 625.535 865.86 631.131 860.14 630.6L540.382 601.045C529.707 600.052 520.509 592.184 517.928 581.792L495.44 491.107C493.511 483.333 499.619 476.433 507.598 477.363L805.606 511.832C812.815 512.67 819.249 517.332 822.346 523.971L822.382 523.949Z" fill="#85D6CA"/>
<path d="M507.024 485.362C505.896 487.537 505.522 490.156 506.208 492.906L527.553 578.983C530.009 588.841 538.722 596.32 548.855 597.262L852.352 625.315C854.028 625.476 855.528 625.073 856.747 624.301C859.491 622.563 860.742 618.963 859.121 615.497L816.489 524.085C813.568 517.794 807.461 513.369 800.607 512.57L517.726 479.848C512.971 479.295 508.904 481.672 507.009 485.352L507.024 485.362Z" fill="black"/>
<path d="M507.018 485.453C505.886 487.628 505.517 490.246 506.2 492.992L527.536 579.048C529.991 588.903 538.703 596.376 548.835 597.323L852.237 625.361C853.914 625.527 855.411 625.121 856.629 624.35C856.819 623.874 856.936 623.369 857.006 622.854C857.199 621.572 856.999 620.162 856.368 618.796L830.112 562.512L813.748 527.41C810.815 521.108 804.705 516.685 797.843 515.901L568.684 489.404L516.064 483.315L515.067 483.203C511.954 482.833 509.105 483.74 506.991 485.455L507.018 485.453Z" fill="#DCD7F9"/>
<path d="M518.15 483.136C529.517 494.048 540.901 504.927 552.325 515.786C568.667 531.334 585.72 546.623 605.752 557.227C622.33 565.999 640.553 570.652 658.74 572.275C676.685 573.873 694.371 573.363 712.166 572.55C728.055 571.831 743.977 571.134 759.984 572.342C760.087 572.366 760.181 572.363 760.293 572.372C771.205 573.508 781.988 575.711 792.527 579.266C792.591 579.309 792.661 579.31 792.713 579.345C804.524 583.841 815.759 589.843 826.395 596.839C837.055 604.231 847.007 612.568 856.373 621.51C856.565 620.239 856.365 618.84 855.739 617.485L829.685 561.663C826.743 559.953 823.725 558.32 820.669 556.777C811.807 552.35 802.537 548.765 793.14 545.887C777.518 541.117 761.226 539.478 745.215 539.044C717.433 538.323 689.934 542.126 662.082 540.138C662.03 540.144 661.976 540.153 661.912 540.11C651.855 539.148 641.832 537.3 632.087 534.081C623.837 530.955 616.008 526.826 608.557 521.968C608.508 521.935 608.441 521.89 608.377 521.847C601.822 517.241 595.571 512.169 589.529 506.883C582.983 501.146 576.626 495.186 570.327 489.169L518.125 483.14L518.15 483.136Z" fill="#E8E8FC"/>
<path d="M716.356 625.766C716.356 625.766 709.835 611.156 706.866 605.108C703.901 599.062 689.999 590.206 678.909 597.182C678.909 597.182 665.758 605.671 667.665 621.275L716.346 625.781L716.356 625.766Z" fill="#8C3A03"/>
<path d="M661.513 622.337C661.513 622.337 656.014 605.305 648.285 597.832C640.55 590.36 634.573 573.341 634.573 573.341C634.573 573.341 630.3 562.124 619.753 563.597C609.202 565.068 593.009 575.649 602.584 596.705C602.584 596.705 609.647 614.296 611.297 617.701L661.503 622.351L661.513 622.337Z" fill="#8C3A03"/>
<path d="M597.117 618.3C597.117 618.3 573.172 572.981 562.946 569.408C552.723 565.837 543.452 574.757 542.37 586.535C541.29 598.31 543.558 609.303 546.029 613.574L597.145 618.298L597.117 618.3Z" fill="#8C3A03"/>
<path d="M765.887 628.968C765.887 628.968 738.721 613.265 720.771 624.791L765.887 628.968Z" fill="#8C3A03"/>
<path d="M686.13 662.998C686.13 662.998 661.857 639.939 666.745 622.12" stroke="#231005" stroke-width="2.91185" stroke-miterlimit="10" stroke-linecap="round"/>
<path d="M665.465 655.791C665.465 655.791 663.233 641.312 667.281 635.097" stroke="#231005" stroke-width="2.91185" stroke-miterlimit="10" stroke-linecap="round"/>
<path d="M613.702 630.355C610.633 623.263 610.382 618.535 610.382 618.535" stroke="#231005" stroke-width="2.91185" stroke-miterlimit="10" stroke-linecap="round"/>
<path d="M659.781 621.684C659.781 621.684 662.24 630.045 661.125 644.136C660.01 658.226 659.995 663.178 659.995 663.178" stroke="#231005" stroke-width="2.91185" stroke-miterlimit="10" stroke-linecap="round"/>
<path d="M597.466 661.925C597.466 661.925 600.51 652.784 596.786 643.56C596.786 643.56 595.665 635.647 596.739 631.297C597.814 626.953 598.889 620.378 595.538 617.653" stroke="#231005" stroke-width="2.91185" stroke-miterlimit="10" stroke-linecap="round"/>
<path d="M720.411 650.918C720.411 650.918 722.406 643.028 719.448 636.36C716.489 629.687 715.404 625.157 715.404 625.157" stroke="#231005" stroke-width="2.91185" stroke-miterlimit="10" stroke-linecap="round"/>
<path d="M559.811 638.734C559.811 638.734 548.419 626.204 545.107 614.434" stroke="#231005" stroke-width="2.91185" stroke-miterlimit="10" stroke-linecap="round"/>
<path d="M552.836 652.997C552.836 652.997 547.49 641.123 551.182 628.178" stroke="#231005" stroke-width="2.91185" stroke-miterlimit="10" stroke-linecap="round"/>
<path d="M522.502 620.458L531.732 613.402" stroke="#231005" stroke-width="2.91185" stroke-miterlimit="10" stroke-linecap="round"/>
<path d="M506.066 567.292C506.066 567.292 496.262 572.518 488.086 578.649" stroke="#231005" stroke-width="2.91185" stroke-miterlimit="10" stroke-linecap="round"/>
<path d="M671.992 459.027C671.992 459.027 668.259 485.452 663.461 490.469" stroke="#231005" stroke-width="2.91185" stroke-miterlimit="10" stroke-linecap="round"/>
<path d="M628.48 453.356C628.48 453.356 628.348 468.64 623.447 476.845" stroke="#231005" stroke-width="2.91185" stroke-miterlimit="10" stroke-linecap="round"/>
<path d="M603.303 447.673C603.995 442.892 600.819 435.418 600.819 435.418" stroke="#231005" stroke-width="2.91185" stroke-miterlimit="10" stroke-linecap="round"/>
<path d="M501.035 469.338C501.035 469.338 482.336 445.305 478.556 433.317" stroke="#231005" stroke-width="2.91185" stroke-miterlimit="10" stroke-linecap="round"/>
<path d="M612.729 663.112C612.729 663.112 607.157 652.881 612.189 644.335C612.189 644.335 614.76 639.584 613.902 637.001" stroke="#231005" stroke-width="2.91185" stroke-miterlimit="10" stroke-linecap="round"/>
<path d="M654.321 630.805C654.321 630.805 645.961 636.001 636.897 632.293" stroke="#231005" stroke-width="2.91185" stroke-miterlimit="10" stroke-linecap="round"/>
<path d="M592.593 630.647C592.593 630.647 580.545 637.013 574.203 633.927" stroke="#231005" stroke-width="2.91185" stroke-miterlimit="10" stroke-linecap="round"/>
<path d="M713.539 657.95C713.539 657.95 702.508 662.794 697.701 661.898" stroke="#231005" stroke-width="2.91185" stroke-miterlimit="10" stroke-linecap="round"/>
<path d="M627.147 575.151C628.452 573.958 630.644 574.442 631.591 576.069C635.007 581.968 641.053 592.894 640.507 595.927C639.654 600.686 628.371 609.725 612.718 589.138L610.438 585.488C608.973 583.151 610.354 580.3 613.012 580.063C617.512 579.648 623.582 578.465 627.156 575.178L627.147 575.151Z" fill="#FBF4DE"/>
<path d="M696.159 607.038C693.731 608.925 689.461 611.18 683.128 611.117C680.772 611.089 678.989 612.985 679.376 615.297C680.501 622.169 684.634 634.515 699.558 635.547C699.558 635.547 713.659 631.891 700.793 608.17C699.86 606.436 697.637 605.91 696.159 607.038Z" fill="#FBF4DE"/>
<path d="M564.932 577.384C565.998 576.257 567.874 576.348 568.92 577.637C573.142 582.881 581.094 593.879 576.353 597.459C570.054 602.22 557.899 597.644 552.129 588.904L551.122 587.37C549.874 585.477 550.785 583.049 552.925 582.624C556.767 581.855 562.12 580.305 564.932 577.384Z" fill="#FBF4DE"/>
<path d="M720.763 625.521L716.724 628.179" stroke="#231005" stroke-width="2.91185" stroke-miterlimit="10" stroke-linecap="round"/>
<path d="M612.673 480.831C612.673 480.831 607.713 471.15 599.166 469.137" stroke="#231005" stroke-width="2.91185" stroke-miterlimit="10" stroke-linecap="round"/>
<path d="M312.514 456.119C291.908 480.282 302.013 475.83 302.013 475.83L326.77 491.942L329.043 493.416C336.559 500.432 342.611 504.961 347.466 507.776C363.545 517.118 366.696 507.924 366.696 507.924C366.696 507.924 367.689 504.319 370.22 497.745C371.884 493.379 374.191 487.734 377.33 480.972C381.312 472.403 386.592 462.032 393.488 450.204C397.86 442.672 402.895 434.578 408.673 425.979C415.468 415.867 419.137 407.66 420.672 400.967C424.673 383.621 414.319 376.625 407.261 373.936C403.908 372.651 401.29 372.334 401.29 372.334L387.461 366.734L377.064 362.519C377.064 362.519 373.378 375.51 361.163 395.534C358.797 399.409 356.099 403.563 353.041 407.934C350.671 411.373 348.044 414.933 345.185 418.592C342.421 422.176 339.434 425.885 336.185 429.649C333.506 432.813 330.614 436.039 327.565 439.317C325.667 441.357 323.875 443.311 322.205 445.114C318.383 449.317 315.167 452.962 312.48 456.096L312.514 456.119Z" fill="#F1C453"/>
<path d="M371.986 414.736C376.096 421.23 380.032 426.059 385.787 430.867C385.922 430.958 386.571 431.413 386.931 431.722C386.966 431.745 387.007 431.794 387.032 431.79L387.067 431.813C387.503 432.151 387.907 432.468 388.36 432.746C389.343 433.403 390.327 434.061 391.351 434.657C391.93 434.998 392.518 435.298 393.061 435.618C393.155 435.702 393.231 435.732 393.266 435.755L393.335 435.802C394.501 436.327 395.672 436.885 396.842 437.37C396.633 437.204 397.591 437.459 397.582 437.542C397.854 437.541 398.214 437.51 398.423 437.489L398.458 437.512C398.679 437.362 399.608 437.092 399.761 437.012C399.761 437.012 400.735 436.453 400.984 436.301C403.492 434.369 404.997 431.401 406.233 428.477C408.359 423.185 409.337 416.296 408.433 410.528C406.45 398.215 399.192 384.838 391.607 372.999C390.261 370.914 388.915 368.803 387.5 366.714L401.344 372.317C401.344 372.317 403.967 372.632 407.323 373.917C411.375 380.466 415.066 387.114 417.978 393.839C419.039 396.239 419.969 398.619 420.748 400.966C419.195 407.653 415.523 415.865 408.736 425.994C402.95 434.601 397.9 442.715 393.535 450.234C391.686 449.409 389.804 448.448 387.921 447.371C372.69 438.785 362.085 424.039 354.07 409.764C353.738 409.156 353.394 408.56 353.074 407.935C356.119 403.55 358.817 399.392 361.205 395.528C364.465 402.052 367.991 408.475 372.014 414.729L371.986 414.736ZM345.216 418.625C348.356 424.475 351.526 430.363 354.64 436.217C362.545 451.029 370.28 466.03 377.369 481.006C374.248 487.782 371.906 493.439 370.252 497.79C363.811 483.158 356.572 468.557 349.128 454.121C344.916 445.957 340.566 437.815 336.216 429.674C339.465 425.906 342.468 422.181 345.225 418.611L345.216 418.625ZM322.21 445.166C332.231 465.943 339.519 486.947 347.463 507.842C342.604 505.025 336.546 500.493 329.022 493.473L326.746 491.998C323.492 483.264 320.191 474.567 316.615 465.916C315.285 462.694 313.895 459.459 312.474 456.156C315.144 453.007 318.385 449.369 322.21 445.166Z" fill="#FF9ECB"/>
</svg>
