<svg width="1451" height="1232" viewBox="0 0 1451 1232" fill="none" xmlns="http://www.w3.org/2000/svg">
<path d="M1339.04 39.782C1471.89 258.415 1219.49 481.977 919.952 593L593.452 717" stroke="#FF9ECB" stroke-width="151"/>
<path d="M215.781 774.246C206.487 816.363 204.753 867.604 219.51 869.04C234.278 870.458 238.496 863.181 247.527 835.615C256.587 808.044 263.763 815.989 263.763 815.989C263.763 815.989 263.396 851.458 278.305 862.019C280.306 863.452 282.39 865.079 284.515 866.801C289.487 870.891 294.655 875.427 299.75 878.964C308.45 885.012 316.886 888.104 323.681 880.704L323.999 880.846L344.496 890.209L347.893 891.748C347.893 891.748 359.42 895.966 365.002 885.082C365.002 885.082 395.843 886.398 388.698 863.073C388.698 863.073 385.732 855.535 379.453 852.854L390.143 843.46C390.143 843.46 417.136 842.935 421.945 836.081C421.945 836.081 503.8 866.564 545.639 826.392L576.252 809.776L597.522 798.237L606.296 793.479L535.206 668.49L530.038 670.627L529.973 670.651L512.122 678.018C512.122 678.018 417.676 693.676 370.369 678.987C323.044 664.285 303.318 680.754 295.628 685.766C287.957 690.79 225.097 732.127 215.781 774.246Z" fill="#A44303"/>
<path d="M530.673 665.931C530.673 665.931 530.671 666.042 530.685 666.096C532.99 746.101 576.657 804.442 576.657 804.442L597.782 792.966L530.749 666.072L530.673 665.931Z" fill="black"/>
<path d="M341.384 892.827C339.708 890.286 338.541 886.628 338.867 881.377C339.023 879.126 337.584 876.945 335.467 875.925C330.26 873.431 322.405 871.936 321.083 883.542" fill="#F1C453"/>
<path d="M248.825 766.835C248.825 766.835 260.905 775.496 263.97 781.211" stroke="#231005" stroke-width="2.91185" stroke-miterlimit="10" stroke-linecap="round"/>
<path d="M307.218 824.08L308.514 841.821" stroke="#231005" stroke-width="2.91185" stroke-miterlimit="10" stroke-linecap="round"/>
<path d="M298.462 838.155C298.462 838.155 333.885 849.993 321.636 883.795" stroke="#231005" stroke-width="2.91185" stroke-miterlimit="10" stroke-linecap="round"/>
<path d="M322.327 824.274C322.327 824.274 341.071 836.37 340.875 853.919" stroke="#231005" stroke-width="2.91185" stroke-miterlimit="10" stroke-linecap="round"/>
<path d="M368.783 865.862C369.214 869.647 370.628 875.555 375.288 878.508C376.689 879.404 376.695 881.416 375.353 882.227C372.679 883.832 368.277 885.338 362.319 883.427C362.319 883.427 362.856 872.428 357.369 866.592C357.369 866.592 359.777 863.523 364.338 862.58C366.415 862.15 368.53 863.752 368.746 865.879L368.783 865.862Z" fill="#F1C453"/>
<path d="M330.354 850.879C330.354 850.879 366.423 858.259 362.197 886.942" stroke="#231005" stroke-width="2.91185" stroke-miterlimit="10" stroke-linecap="round"/>
<path d="M345.548 814.709C345.548 814.709 366.333 835.333 388.173 844.356" stroke="#231005" stroke-width="2.91185" stroke-miterlimit="10" stroke-linecap="round"/>
<path d="M347.152 827.63C347.152 827.63 344.742 836.049 336.109 837.958" stroke="#231005" stroke-width="2.91185" stroke-miterlimit="10" stroke-linecap="round"/>
<path d="M356.235 855.26C356.235 855.26 363.978 847.512 377.173 854.384" stroke="#231005" stroke-width="2.91185" stroke-miterlimit="10" stroke-linecap="round"/>
<path d="M413.457 825.723L420.128 835.873" stroke="#231005" stroke-width="2.91185" stroke-miterlimit="10" stroke-linecap="round"/>
<path d="M89.6017 949.287C120.041 946.46 148.104 941.401 174.018 934.288C176.897 933.526 179.741 932.715 182.521 931.886C213.168 922.831 240.721 910.88 265.484 896.335C271.843 892.607 274.896 885.931 273.559 879.12L270.763 865.053L269.579 859.044L264.755 834.572L251.205 765.948C250.541 762.532 247.777 759.905 244.395 758.7C241.709 757.759 238.644 757.693 235.934 758.889C235.808 758.938 235.734 758.977 235.632 759.022C201.707 775.168 168.22 789.275 135.411 799.983C129.019 802.1 122.645 804.074 116.291 805.879C113.406 806.684 110.537 807.499 107.689 808.282C96.2503 811.34 84.9128 813.947 73.6862 816.015C69.771 816.738 65.8522 817.391 61.9548 817.971C61.4268 818.045 60.9299 818.141 60.4238 818.21C53.4521 819.26 48.9935 824.584 49.734 830.607L49.713 830.639C49.7565 830.984 49.822 831.323 49.8948 831.692L56.5696 861.892L59.4298 874.755L73.6468 938.959C74.2964 941.91 76.1973 944.501 78.7921 946.357L78.8077 946.368C81.7676 948.516 85.643 949.665 89.5716 949.292L89.6017 949.287Z" fill="#B24F24"/>
<path d="M78.8974 946.454C78.8974 946.454 78.8974 946.454 78.9129 946.464C81.2127 947.373 83.7402 947.781 86.325 947.546C117.393 944.64 146.012 939.436 172.371 932.121C175.246 931.331 178.06 930.525 180.861 929.664C210.848 920.667 237.859 908.874 262.193 894.58C268.568 890.863 271.622 884.192 270.268 877.365L268.093 866.411L247.919 764.221C247.484 762.047 246.21 760.197 244.461 758.816C241.225 756.28 236.344 755.382 232.349 757.298C199.263 773.077 166.57 786.853 134.549 797.458C127.818 799.689 121.099 801.793 114.419 803.721C111.54 804.551 108.674 805.368 105.826 806.151C94.0742 809.319 82.4369 812.015 70.8928 814.164C66.8576 814.921 62.8739 815.598 58.8595 816.212C58.2762 816.296 57.7199 816.373 57.1407 816.486C49.7735 817.586 45.191 823.505 46.6136 829.965L52.9515 858.65L55.9331 872.096L70.366 937.19C71.2756 941.335 74.6106 944.754 78.8691 946.456L78.8974 946.454Z" fill="#FF6600"/>
<path opacity="0.74" d="M245.45 766.683L267.164 876.662C268.472 883.298 265.499 889.776 259.302 893.406C213.022 920.581 156.816 938.463 88.3701 944.859C81.1935 945.523 74.2485 940.994 72.8722 934.792L49.7826 830.573C48.3901 824.293 52.8599 818.547 60.0111 817.483C114.492 809.41 171.763 787.872 230.303 759.955C236.282 757.105 244.239 760.639 245.434 766.672L245.45 766.683Z" fill="#FF8534"/>
<path d="M171.585 932.459C171.083 931.805 170.595 931.165 170.11 930.526C162.575 920.641 154.912 910.853 147.062 901.16C143.658 902.091 139.993 902.426 136.539 902.408C128.313 902.424 119.961 901.462 111.819 899.7C95.4636 896.153 79.7288 889.237 65.6948 879.707C63.9318 878.475 62.1237 877.238 60.4075 875.9C60.4075 875.9 60.3377 875.899 60.34 875.854C59.1576 874.971 58.0143 874.069 56.8208 873.129L53.8854 859.826C55.0981 860.954 56.3048 862.057 57.521 863.146C57.5547 863.168 57.5701 863.179 57.6038 863.201C58.2812 863.836 59.0349 864.435 59.7235 865.052C71.4167 875.005 85.0205 882.855 99.4331 887.787C106.793 890.275 114.39 892.141 122.008 893.167C128.113 894.008 135.009 894.794 141.198 893.898C129.525 879.756 117.395 865.951 104.205 853.156C91.5949 840.889 77.8756 828.949 62.8146 819.756C62.4072 819.507 62.0325 819.275 61.6157 819.041C61.244 818.811 60.861 818.599 60.5047 818.38C60.256 818.213 59.9712 818.067 59.7131 817.914C63.6693 817.309 67.597 816.639 71.5909 815.902C72.1865 816.302 72.7502 816.677 73.3161 817.083C73.7081 817.322 74.0437 817.573 74.406 817.817C79.9019 821.602 85.2048 825.711 90.3453 829.927C106.272 842.973 120.58 857.773 134.123 873.199C139.216 879.022 144.253 884.896 149.2 890.867C152.672 887.872 152.947 882.817 151.496 877.746C149.144 869.422 144.614 861.384 140.192 853.839C131.009 838.28 119.706 824.004 107.946 810.178C107.693 809.875 107.446 809.596 107.199 809.318C106.811 808.857 106.465 808.445 106.049 807.986C108.857 807.212 111.685 806.406 114.525 805.582C114.923 806.029 115.292 806.481 115.68 806.942C115.946 807.233 116.198 807.536 116.434 807.832C125.43 818.496 134.097 829.409 141.714 841.026C147.51 849.853 152.705 859.1 156.9 868.71C160.03 875.873 162.312 884.15 159.467 891.37C158.422 894.001 156.778 896.053 154.713 897.618C162.855 907.621 170.792 917.797 178.569 928.11L178.584 928.121C179.082 928.747 179.549 929.378 180.034 930.016L180.053 930.029C180.624 930.792 181.194 931.558 181.766 932.321C179.014 933.158 176.212 933.957 173.382 934.696C172.817 933.958 172.245 933.194 171.68 932.456L171.585 932.459Z" fill="#FF985F"/>
<path d="M84.6934 923.919C84.8278 922.906 86.2082 922.366 86.7093 921.529C87.2072 920.689 87.0315 919.196 87.8244 918.601C88.6174 918.006 90.0563 918.524 91.0207 918.179C91.9518 917.857 92.6549 916.593 93.7024 916.53C94.695 916.476 95.7428 917.629 96.7814 917.833C97.8232 918.038 99.1062 917.32 100.046 917.75C101.031 918.186 101.401 919.676 102.201 920.327C103.05 921.007 104.563 921.077 105.157 921.929C105.753 922.783 105.243 924.155 105.508 925.143C105.774 926.135 106.965 927.137 106.828 928.153C106.692 929.168 105.314 929.705 104.816 930.545C104.318 931.384 104.493 932.878 103.697 933.471C102.904 934.066 101.467 933.552 100.501 933.893C99.573 934.217 98.87 935.48 97.8224 935.543C96.8248 935.598 95.7821 934.444 94.7403 934.239C93.6998 934.038 92.4186 934.754 91.4739 934.324C90.4907 933.885 90.1191 932.398 89.3219 931.749C88.4721 931.064 86.9589 930.995 86.3651 930.143C85.7695 929.293 86.2803 927.922 86.0142 926.929C85.7511 925.938 84.5603 924.936 84.6934 923.919Z" fill="#B24F24"/>
<path d="M263.777 855.107L266.561 854.112L269.318 853.118L263.744 828.838L256.164 808.814L254.01 803.143L252.084 804.107L208.897 825.581L211.014 843.829C211.014 843.829 227.639 870.362 263.792 855.118L263.777 855.107Z" fill="black"/>
<path d="M354.367 722.113C354.367 722.113 331.048 737.703 311.152 755.098C295.55 768.742 272.89 762.786 253.778 782.405C230.961 805.827 203.761 790.138 200.304 815.829C198.372 830.085 214.449 869.428 285.026 829.89C285.026 829.89 319.438 804.893 348.029 809.511C376.618 814.123 427.636 838.149 489.81 800.389L384.887 703.055L354.378 722.095L354.367 722.113Z" fill="#A44303"/>
<path d="M489.141 799.541C489.141 799.541 439.562 839.955 347.18 808.666C347.18 808.666 312.402 804.459 284.094 829.068C284.094 829.068 270.785 837.48 265.189 839.028" stroke="#231005" stroke-width="2.91185" stroke-miterlimit="10" stroke-linecap="round"/>
<path d="M357.52 722.646C357.52 722.646 342.414 743.116 327.939 749.58C319.259 753.472 309.243 759.81 302.643 764.246C297.886 767.445 292.596 769.849 286.975 771.421C276.989 774.21 260.668 779.695 252.86 787.505" stroke="#231005" stroke-width="2.91185" stroke-miterlimit="10" stroke-linecap="round"/>
<path d="M221.357 808.265C221.357 808.265 240.494 803.532 239.932 812.824C239.396 821.526 234.296 832.775 217.188 837.076C215.595 837.48 214.008 835.984 214.329 834.384C215.294 829.469 216.204 820.338 211.754 813.832C210.825 812.483 211.419 810.72 212.937 810.355L221.342 808.254L221.357 808.265Z" fill="#F1C453"/>
<path d="M297.315 882.766C297.158 870.405 287.354 870.164 282.36 870.847C287.235 874.834 292.309 879.31 297.315 882.766Z" fill="#F1C453"/>
<path d="M290.444 733.933C290.444 733.933 292.329 756.056 302.978 764.273" stroke="#231005" stroke-width="2.91185" stroke-miterlimit="10" stroke-linecap="round"/>
<path d="M297.604 758.911L279.148 774.268" stroke="#231005" stroke-width="2.91185" stroke-miterlimit="10" stroke-linecap="round"/>
<path d="M312.881 707.566C312.881 707.566 320.828 741.818 328.45 748.923" stroke="#231005" stroke-width="2.91185" stroke-miterlimit="10" stroke-linecap="round"/>
<path d="M277.241 856.314C277.241 856.314 272.623 862.68 273.042 863.146" stroke="#231005" stroke-width="2.91185" stroke-miterlimit="10" stroke-linecap="round"/>
<path d="M266.125 784.509C266.125 784.509 263.369 802.478 272.013 810.728" stroke="#231005" stroke-width="2.91185" stroke-miterlimit="10" stroke-linecap="round"/>
<path d="M528.951 665.896C528.951 665.896 532.622 675.768 538.666 690.432C540.447 694.78 542.436 699.538 544.601 704.573C551.75 721.284 560.775 741.128 570.443 759.397C578.501 774.675 587.003 788.83 595.231 799.116C607.064 813.914 618.304 820.709 626.819 811.337C626.819 811.337 629.525 810.886 632.449 808.193C634.767 806.063 637.228 802.54 638.596 796.735C638.809 795.82 639.011 794.852 639.164 793.809C639.164 793.809 642.555 788.821 647.157 783.478C650.452 779.664 652.061 774.919 652.06 770.08C652.069 765.225 650.423 760.271 647.222 756.092C646.542 755.23 645.808 754.376 645.007 753.589C636.409 745.083 625.771 733.877 615.31 721.081C611.497 716.446 607.714 711.584 604.06 706.56C599.198 699.87 594.537 692.909 590.365 685.783C587.574 681.047 584.984 676.223 582.706 671.36C578.734 662.973 575.611 654.459 573.708 646.046C572.499 640.642 565.863 638.181 561.785 641.581C556.245 646.203 549.214 651.937 542.905 656.717C538.3 660.19 534.068 663.172 531.056 664.859C530.269 665.297 529.562 665.654 528.951 665.896Z" fill="#3370F8"/>
<path d="M542.798 657.135C553.534 661.218 564.173 665.572 574.912 669.253C577.406 670.1 579.91 670.933 582.461 671.73C584.732 676.577 587.313 681.387 590.095 686.108C569.935 681.068 550.641 672.282 530.99 665.252C533.991 663.57 538.208 660.597 542.798 657.135ZM575.024 700.598C584.579 702.809 594.163 704.794 603.743 706.82C607.385 711.828 611.155 716.675 614.954 721.295C605.132 719.128 595.278 717.119 585.469 715.006C571.786 712.081 558.016 708.851 544.49 704.842C542.332 699.824 540.35 695.081 538.575 690.746C550.594 694.66 562.839 697.784 575.024 700.598ZM577.709 750.366C586.911 743.724 599.04 744.101 610.256 746.174C622.652 748.48 634.718 752.246 646.758 756.196C649.948 760.362 651.588 765.301 651.58 770.141C648.132 768.965 644.665 767.821 641.187 766.693C628.728 762.617 615.719 758.328 602.803 756.93C597.594 756.34 593.524 756.562 589.021 758.178C588.937 758.234 588.472 758.437 588.191 758.54C588.172 758.569 588.127 758.564 588.118 758.579L588.101 758.567C587.779 758.734 587.479 758.866 587.184 759.026C586.52 759.388 585.863 759.776 585.23 760.201C584.873 760.457 584.534 760.721 584.189 760.959C584.125 760.984 584.079 761.019 584.058 761.051L584.02 761.071C583.398 761.662 582.769 762.227 582.17 762.854C582.334 762.785 581.942 763.351 581.876 763.306C581.814 763.511 581.761 763.812 581.718 763.988C581.739 764.248 581.707 765.102 581.72 765.265C581.72 765.265 581.861 766.327 581.899 766.599C582.572 769.587 584.169 772.434 585.807 775.036C588.772 779.658 593.048 784.349 597.043 786.949C605.576 792.486 616.025 794.604 625.561 795.637C629.711 796.099 633.941 796.364 638.163 796.715C636.8 802.502 634.347 806.014 632.037 808.137C623.194 807.392 614.279 806.464 605.719 803.711C601.932 802.509 598.342 800.969 594.95 799.088C586.748 788.837 578.275 774.726 570.233 759.513C571.463 755.65 574.274 752.829 577.709 750.366Z" fill="#988BF1"/>
</svg>
